<?xml version="1.0" encoding="UTF-8" standalone="no"?>
<!-- Created with Inkscape (http://www.inkscape.org/) -->

<svg
   width="64pt"
   height="64pt"
   viewBox="0 0 22.577778 22.577778"
   version="1.1"
   id="svg831"
   inkscape:version="1.1.1 (3bf5ae0d25, 2021-09-20)"
   sodipodi:docname="Ex.svg"
   inkscape:export-filename="C:\Users\User\Desktop\CARLOS PROJECT\4. APRIL 1\Done\2 - Cabbage.png"
   inkscape:export-xdpi="576"
   inkscape:export-ydpi="576"
   xmlns:inkscape="http://www.inkscape.org/namespaces/inkscape"
   xmlns:sodipodi="http://sodipodi.sourceforge.net/DTD/sodipodi-0.dtd"
   xmlns="http://www.w3.org/2000/svg"
   xmlns:svg="http://www.w3.org/2000/svg"
   xmlns:rdf="http://www.w3.org/1999/02/22-rdf-syntax-ns#"
   xmlns:cc="http://creativecommons.org/ns#"
   xmlns:dc="http://purl.org/dc/elements/1.1/">
  <defs
     id="defs825">
    <pattern
       id="EMFhbasepattern"
       patternUnits="userSpaceOnUse"
       width="6"
       height="6"
       x="0"
       y="0" />
    <pattern
       id="EMFhbasepattern-9"
       patternUnits="userSpaceOnUse"
       width="6"
       height="6"
       x="0"
       y="0" />
    <pattern
       id="EMFhbasepattern-0"
       patternUnits="userSpaceOnUse"
       width="6"
       height="6"
       x="0"
       y="0" />
    <pattern
       id="EMFhbasepattern-7"
       patternUnits="userSpaceOnUse"
       width="6"
       height="6"
       x="0"
       y="0" />
    <pattern
       id="EMFhbasepattern-2"
       patternUnits="userSpaceOnUse"
       width="6"
       height="6"
       x="0"
       y="0" />
    <pattern
       id="EMFhbasepattern-98"
       patternUnits="userSpaceOnUse"
       width="6"
       height="6"
       x="0"
       y="0" />
    <pattern
       id="EMFhbasepattern-6"
       patternUnits="userSpaceOnUse"
       width="6"
       height="6"
       x="0"
       y="0" />
    <pattern
       id="EMFhbasepattern-01"
       patternUnits="userSpaceOnUse"
       width="6"
       height="6"
       x="0"
       y="0" />
    <pattern
       id="EMFhbasepattern-07"
       patternUnits="userSpaceOnUse"
       width="6"
       height="6"
       x="0"
       y="0" />
    <pattern
       id="EMFhbasepattern-8"
       patternUnits="userSpaceOnUse"
       width="6"
       height="6"
       x="0"
       y="0" />
    <pattern
       id="EMFhbasepattern-4"
       patternUnits="userSpaceOnUse"
       width="6"
       height="6"
       x="0"
       y="0" />
    <pattern
       id="EMFhbasepattern-40"
       patternUnits="userSpaceOnUse"
       width="6"
       height="6"
       x="0"
       y="0" />
    <pattern
       id="EMFhbasepattern-08"
       patternUnits="userSpaceOnUse"
       width="6"
       height="6"
       x="0"
       y="0" />
    <pattern
       id="EMFhbasepattern-04"
       patternUnits="userSpaceOnUse"
       width="6"
       height="6"
       x="0"
       y="0" />
    <pattern
       id="EMFhbasepattern-014"
       patternUnits="userSpaceOnUse"
       width="6"
       height="6"
       x="0"
       y="0" />
    <pattern
       id="EMFhbasepattern-27"
       patternUnits="userSpaceOnUse"
       width="6"
       height="6"
       x="0"
       y="0" />
    <pattern
       id="EMFhbasepattern-09"
       patternUnits="userSpaceOnUse"
       width="6"
       height="6"
       x="0"
       y="0" />
    <pattern
       id="EMFhbasepattern-5"
       patternUnits="userSpaceOnUse"
       width="6"
       height="6"
       x="0"
       y="0" />
    <pattern
       id="EMFhbasepattern-018"
       patternUnits="userSpaceOnUse"
       width="6"
       height="6"
       x="0"
       y="0" />
  </defs>
  <sodipodi:namedview
     id="base"
     pagecolor="#ffffff"
     bordercolor="#666666"
     borderopacity="1.0"
     inkscape:pageopacity="0.0"
     inkscape:pageshadow="2"
     inkscape:zoom="6.4882571"
     inkscape:cx="31.749667"
     inkscape:cy="42.615451"
     inkscape:document-units="pt"
     inkscape:current-layer="layer1"
     showgrid="false"
     units="pt"
     inkscape:window-width="1920"
     inkscape:window-height="1001"
     inkscape:window-x="-9"
     inkscape:window-y="-9"
     inkscape:window-maximized="1"
     inkscape:pagecheckerboard="true"
     inkscape:showpageshadow="false"
     inkscape:object-paths="true"
     inkscape:snap-intersection-paths="true"
     inkscape:snap-smooth-nodes="true"
     inkscape:snap-midpoints="true"
     showguides="true"
     inkscape:snap-bbox="true"
     inkscape:bbox-nodes="true"
     inkscape:snap-nodes="false"
     inkscape:snap-global="true"
     inkscape:lockguides="true">
    <inkscape:grid
       type="xygrid"
       id="grid1378" />
    <sodipodi:guide
       position="0.97013831,21.607643"
       orientation="78.000048,0"
       id="guide1380"
       inkscape:locked="true" />
    <sodipodi:guide
       position="0.97013831,0.97013129"
       orientation="0,78.000005"
       id="guide1382"
       inkscape:locked="true" />
    <sodipodi:guide
       position="21.607639,0.97013129"
       orientation="-78.000048,0"
       id="guide1384"
       inkscape:locked="true" />
    <sodipodi:guide
       position="21.607639,21.607643"
       orientation="0,-78.000005"
       id="guide1386"
       inkscape:locked="true" />
  </sodipodi:namedview>
  <metadata
     id="metadata828">
    <rdf:RDF>
      <cc:Work
         rdf:about="">
        <dc:format>image/svg+xml</dc:format>
        <dc:type
           rdf:resource="http://purl.org/dc/dcmitype/StillImage" />
      </cc:Work>
    </rdf:RDF>
  </metadata>
  <g
     inkscape:label="Icon"
     inkscape:groupmode="layer"
     id="layer1"
     transform="translate(0,-274.42223)">
    <g
       id="g1364"
       style="display:inline;stroke-width:0.786555"
       transform="matrix(1.2713664,0,0,1.2713664,0.52469444,-42.353404)">
      <path
         sodipodi:nodetypes="ccssscccccccccccccc"
         id="path2101"
         d="m 4.715094,257.62506 c 0.2280749,-1.01983 0.3750106,-1.7837 -0.6548673,-2.26568 -0.3096543,-0.29424 -0.6228106,-0.42861 -0.9151893,-0.41987 h -9.7e-6 c -0.097722,0.003 -0.1934801,0.0215 -0.2831869,0.0563 -0.2999928,0.11647 -0.5219939,0.38049 -0.6242514,0.709 -0.7212642,-0.17659 -1.49269769,0.36909 -1.28260899,1.07745 -0.34871158,0.13604 -0.58299034,0.42806 -0.60461421,0.75861 0.0264882,0.35218 0.15662665,0.51914 0.37982182,0.7116 -0.2211705,0.19505 -0.36320863,0.44053 -0.3545004,0.72037 0,0.33181 0.33307432,0.54864 0.67902828,0.65009 -0.0734049,0.39113 0.1405366,0.72745 0.4966195,0.76377 -0.1645949,0.23661 -0.2441554,0.50393 -0.1617472,0.74621 0.1867787,0.49378 0.6071987,0.57285 1.0557497,0.50489 0.1701056,0.29822 0.4847067,0.4625 0.7875487,0.43822 0.3448475,-0.0276 0.6225587,-0.32946 0.7053833,-0.73639 0.5355336,-0.0687 1.0041461,-0.53782 1.0065382,-1.02427 0.933874,-1.0996 -0.2297122,-2.69031 -0.2297122,-2.69031 z"
         style="color:#000000;font-style:normal;font-variant:normal;font-weight:normal;font-stretch:normal;font-size:medium;line-height:normal;font-family:sans-serif;font-variant-ligatures:normal;font-variant-position:normal;font-variant-caps:normal;font-variant-numeric:normal;font-variant-alternates:normal;font-variant-east-asian:normal;font-feature-settings:normal;font-variation-settings:normal;text-indent:0;text-align:start;text-decoration:none;text-decoration-line:none;text-decoration-style:solid;text-decoration-color:#000000;letter-spacing:normal;word-spacing:normal;text-transform:none;writing-mode:lr-tb;direction:ltr;text-orientation:mixed;dominant-baseline:auto;baseline-shift:baseline;text-anchor:start;white-space:normal;shape-padding:0;shape-margin:0;inline-size:0;clip-rule:nonzero;display:inline;overflow:visible;visibility:visible;isolation:auto;mix-blend-mode:normal;color-interpolation:sRGB;color-interpolation-filters:linearRGB;solid-color:#000000;solid-opacity:1;vector-effect:none;fill:#87e59d;fill-opacity:1;fill-rule:nonzero;stroke:none;stroke-width:0.416219;stroke-linecap:round;stroke-linejoin:round;stroke-miterlimit:4;stroke-dasharray:none;stroke-dashoffset:0;stroke-opacity:1;color-rendering:auto;image-rendering:auto;shape-rendering:auto;text-rendering:auto;enable-background:accumulate;stop-color:#000000" />
      <path
         sodipodi:nodetypes="scscccccccccccscss"
         id="path1870"
         d="m 8.9074669,256.32651 c 1.4339481,0.0221 3.0485471,0.0244 3.8653971,-0.0687 0.857621,-0.0977 1.305047,-0.59439 1.476396,-1.04852 0.167161,-0.44302 0.112269,-0.83383 0.109554,-0.85369 -0.01144,-0.57456 -0.286074,-1.0836 -0.705383,-1.35964 -0.409291,-0.23011 -0.747066,-0.20961 -1.139466,-0.0858 -0.03998,-0.43661 -0.14684,-0.91035 -0.651121,-1.06247 -0.346542,-0.13183 -0.731829,-0.0366 -1.108976,0.22634 -0.03728,-0.38699 -0.395627,-0.7178 -0.727091,-0.74414 -0.3723464,-0.0212 -0.7570238,0.17522 -1.0340453,0.53744 -0.3306634,-0.56214 -0.8592075,-0.67595 -1.4252364,-0.53897 -0.5432401,0.1894 -0.9905603,0.74915 -0.9503294,1.45159 -0.3773043,-0.10864 -0.8280663,-0.0233 -1.1100099,0.1829 -0.4398878,0.33084 -0.6663957,0.93929 -0.4927346,1.59835 0.013576,0.67986 0.2939071,1.11636 0.5769674,1.36271 0.2859429,0.24886 0.6139161,0.33202 0.6139161,0.33202 0,0 1.2682128,0.0484 2.7021607,0.0705 z"
         style="color:#000000;font-style:normal;font-variant:normal;font-weight:normal;font-stretch:normal;font-size:medium;line-height:normal;font-family:sans-serif;font-variant-ligatures:normal;font-variant-position:normal;font-variant-caps:normal;font-variant-numeric:normal;font-variant-alternates:normal;font-variant-east-asian:normal;font-feature-settings:normal;font-variation-settings:normal;text-indent:0;text-align:start;text-decoration:none;text-decoration-line:none;text-decoration-style:solid;text-decoration-color:#000000;letter-spacing:normal;word-spacing:normal;text-transform:none;writing-mode:lr-tb;direction:ltr;text-orientation:mixed;dominant-baseline:auto;baseline-shift:baseline;text-anchor:start;white-space:normal;shape-padding:0;shape-margin:0;inline-size:0;clip-rule:nonzero;display:inline;overflow:visible;visibility:visible;isolation:auto;mix-blend-mode:normal;color-interpolation:sRGB;color-interpolation-filters:linearRGB;solid-color:#000000;solid-opacity:1;vector-effect:none;fill:#87e59d;fill-opacity:1;fill-rule:nonzero;stroke:none;stroke-width:0.416219;stroke-linecap:round;stroke-linejoin:round;stroke-miterlimit:4;stroke-dasharray:none;stroke-dashoffset:0;stroke-opacity:1;color-rendering:auto;image-rendering:auto;shape-rendering:auto;text-rendering:auto;enable-background:accumulate;stop-color:#000000" />
      <path
         sodipodi:nodetypes="cccscsccscc"
         transform="matrix(0.26458334,0,0,0.26458334,0,280.06666)"
         d="m 24.130859,-98.203125 c -2.029211,-1.261267 -3.332938,-1.302682 -5.341838,-0.613281 -0.09579,0.763946 -0.05935,1.577516 0.16211,2.417968 0.05131,2.56955 1.111806,4.219305 2.18164,5.150391 1.08073,0.940573 2.320313,1.253906 2.320313,1.253906 0,0 4.793245,0.184051 10.212891,0.267579 0.0032,4.9e-5 0.0066,-5e-5 0.0098,0 0.26105,-1.174534 0.270622,-2.380064 -0.0078,-3.53711 0.225146,-1.440605 -0.09315,-2.842584 -0.871094,-3.808594 -0.875727,-1.087407 -2.081957,-1.797357 -3.380859,-2.148437 -1.9151,-0.437989 -3.822207,-0.251209 -5.285163,1.017578 z"
         style="color:#000000;font-style:normal;font-variant:normal;font-weight:normal;font-stretch:normal;font-size:medium;line-height:normal;font-family:sans-serif;font-variant-ligatures:normal;font-variant-position:normal;font-variant-caps:normal;font-variant-numeric:normal;font-variant-alternates:normal;font-variant-east-asian:normal;font-feature-settings:normal;font-variation-settings:normal;text-indent:0;text-align:start;text-decoration:none;text-decoration-line:none;text-decoration-style:solid;text-decoration-color:#000000;letter-spacing:normal;word-spacing:normal;text-transform:none;writing-mode:lr-tb;direction:ltr;text-orientation:mixed;dominant-baseline:auto;baseline-shift:baseline;text-anchor:start;white-space:normal;shape-padding:0;shape-margin:0;inline-size:0;clip-rule:nonzero;display:inline;overflow:visible;visibility:visible;isolation:auto;mix-blend-mode:normal;color-interpolation:sRGB;color-interpolation-filters:linearRGB;solid-color:#000000;solid-opacity:1;vector-effect:none;fill:#349951;fill-opacity:1;fill-rule:nonzero;stroke:none;stroke-width:1.57311;stroke-linecap:round;stroke-linejoin:round;stroke-miterlimit:4;stroke-dasharray:none;stroke-dashoffset:0;stroke-opacity:1;color-rendering:auto;image-rendering:auto;shape-rendering:auto;text-rendering:auto;enable-background:accumulate;stop-color:#000000"
         id="path2052" />
      <path
         transform="matrix(0.26458334,0,0,0.26458334,0,280.06666)"
         d="m 52.330078,-99.847656 c -1.843589,0.06085 -3.559687,1.081661 -4.857422,2.589844 -0.848636,-0.490886 -1.64486,-1.095598 -2.664062,-1.203126 -1.212337,-0.127748 -2.569857,0.147978 -3.669922,1.048829 -1.03253,0.845323 -1.631365,2.060823 -1.925781,3.388671 l -1.375,4.341797 c 4.13391,0.02062 8.1291,-0.04159 10.4375,-0.304687 3.241402,-0.36926 4.932459,-2.246494 5.580078,-3.962891 0.631789,-1.674406 0.424324,-3.151501 0.414062,-3.226562 -0.01812,-0.909957 -0.220195,-1.770456 -0.554687,-2.546875 -0.466476,-0.09663 -0.935698,-0.139853 -1.384766,-0.125 z"
         style="color:#000000;font-style:normal;font-variant:normal;font-weight:normal;font-stretch:normal;font-size:medium;line-height:normal;font-family:sans-serif;font-variant-ligatures:normal;font-variant-position:normal;font-variant-caps:normal;font-variant-numeric:normal;font-variant-alternates:normal;font-variant-east-asian:normal;font-feature-settings:normal;font-variation-settings:normal;text-indent:0;text-align:start;text-decoration:none;text-decoration-line:none;text-decoration-style:solid;text-decoration-color:#000000;letter-spacing:normal;word-spacing:normal;text-transform:none;writing-mode:lr-tb;direction:ltr;text-orientation:mixed;dominant-baseline:auto;baseline-shift:baseline;text-anchor:start;white-space:normal;shape-padding:0;shape-margin:0;inline-size:0;clip-rule:nonzero;display:inline;overflow:visible;visibility:visible;isolation:auto;mix-blend-mode:normal;color-interpolation:sRGB;color-interpolation-filters:linearRGB;solid-color:#000000;solid-opacity:1;vector-effect:none;fill:#349951;fill-opacity:1;fill-rule:nonzero;stroke:none;stroke-width:1.57311;stroke-linecap:round;stroke-linejoin:round;stroke-miterlimit:4;stroke-dasharray:none;stroke-dashoffset:0;stroke-opacity:1;color-rendering:auto;image-rendering:auto;shape-rendering:auto;text-rendering:auto;enable-background:accumulate;stop-color:#000000"
         id="path1950" />
      <path
         sodipodi:nodetypes="ccccccccccscscsccc"
         id="path1590"
         d="m 12.662793,254.83874 c -0.256448,-0.2112 -0.547072,-0.35953 -0.852144,-0.39171 -0.222931,-0.0235 -0.462869,0.0282 -0.650606,0.18191 -0.187738,0.1537 -0.310956,0.39103 -0.371037,0.69143 l -1.1720332,3.70106 0.6955652,1.47072 c 0.02559,0.0545 0.06897,0.0986 0.12299,0.12505 l 2.998266,1.47278 c 0.10322,0.0501 0.226975,0.028 0.306442,-0.0548 l 1.544608,-1.58285 c 0.682184,0.0929 1.205704,-0.30412 1.28726,-0.8077 0.06384,-0.39416 -0.157822,-0.81029 -0.60048,-1.03869 0.291962,-0.32517 0.385465,-0.72469 0.30179,-1.07487 -0.08163,-0.34166 -0.29988,-0.63591 -0.592728,-0.81908 0.225491,-0.32599 0.248103,-0.72239 0.0832,-1.03042 -0.176824,-0.3303 -0.529946,-0.56324 -0.959115,-0.61754 0.01347,-0.58929 -0.395621,-0.99241 -0.945156,-0.98185 -0.65653,0.01 -0.991385,0.36616 -1.196822,0.75656 z"
         style="color:#000000;font-style:normal;font-variant:normal;font-weight:normal;font-stretch:normal;font-size:medium;line-height:normal;font-family:sans-serif;font-variant-ligatures:normal;font-variant-position:normal;font-variant-caps:normal;font-variant-numeric:normal;font-variant-alternates:normal;font-variant-east-asian:normal;font-feature-settings:normal;font-variation-settings:normal;text-indent:0;text-align:start;text-decoration:none;text-decoration-line:none;text-decoration-style:solid;text-decoration-color:#000000;letter-spacing:normal;word-spacing:normal;text-transform:none;writing-mode:lr-tb;direction:ltr;text-orientation:mixed;dominant-baseline:auto;baseline-shift:baseline;text-anchor:start;white-space:normal;shape-padding:0;shape-margin:0;inline-size:0;clip-rule:nonzero;display:inline;overflow:visible;visibility:visible;isolation:auto;mix-blend-mode:normal;color-interpolation:sRGB;color-interpolation-filters:linearRGB;solid-color:#000000;solid-opacity:1;vector-effect:none;fill:#87e59d;fill-opacity:1;fill-rule:nonzero;stroke:none;stroke-width:0.416219;stroke-linecap:round;stroke-linejoin:round;stroke-miterlimit:4;stroke-dasharray:none;stroke-dashoffset:0;stroke-opacity:1;color-rendering:auto;image-rendering:auto;shape-rendering:auto;text-rendering:auto;enable-background:accumulate;stop-color:#000000" />
      <path
         sodipodi:nodetypes="cccccccc"
         d="m 11.121496,260.90751 2.312309,1.18246 c 0.103225,0.0501 0.22698,0.028 0.306442,-0.0548 l 1.544608,-1.58285 c 0.252884,0.0345 0.483665,5.9e-4 0.678512,-0.0801 -0.01263,-0.21812 -0.06774,-0.42854 -0.199471,-0.60874 -0.705761,-0.7501 -1.473148,-0.59359 -2.312521,-0.20101 z"
         style="color:#000000;font-style:normal;font-variant:normal;font-weight:normal;font-stretch:normal;font-size:medium;line-height:normal;font-family:sans-serif;font-variant-ligatures:normal;font-variant-position:normal;font-variant-caps:normal;font-variant-numeric:normal;font-variant-alternates:normal;font-variant-east-asian:normal;font-feature-settings:normal;font-variation-settings:normal;text-indent:0;text-align:start;text-decoration:none;text-decoration-line:none;text-decoration-style:solid;text-decoration-color:#000000;letter-spacing:normal;word-spacing:normal;text-transform:none;writing-mode:lr-tb;direction:ltr;text-orientation:mixed;dominant-baseline:auto;baseline-shift:baseline;text-anchor:start;white-space:normal;shape-padding:0;shape-margin:0;inline-size:0;clip-rule:nonzero;display:inline;overflow:visible;visibility:visible;isolation:auto;mix-blend-mode:normal;color-interpolation:sRGB;color-interpolation-filters:linearRGB;solid-color:#000000;solid-opacity:1;vector-effect:none;fill:#349951;fill-opacity:1;fill-rule:nonzero;stroke:none;stroke-width:0.416219;stroke-linecap:round;stroke-linejoin:round;stroke-miterlimit:4;stroke-dasharray:none;stroke-dashoffset:0;stroke-opacity:1;color-rendering:auto;image-rendering:auto;shape-rendering:auto;text-rendering:auto;enable-background:accumulate;stop-color:#000000"
         id="path1786" />
      <path
         sodipodi:nodetypes="ccccccccscccscc"
         transform="matrix(0.26458334,0,0,0.26458334,0,280.06666)"
         d="m 42.150391,-96.111328 c -0.691192,0.581535 -1.149476,1.464193 -1.373047,2.582031 -7.08e-4,0.0052 -0.0014,0.01041 -0.002,0.01563 -0.02536,0.04703 -0.04691,0.09601 -0.06445,0.146484 l -4.400391,13.080079 c -0.08446,0.244156 -0.07116,0.511524 0.03711,0.746093 l 0.814453,1.722657 c 0.227747,-0.04025 0.459873,-0.07127 0.677735,-0.134766 1.778997,-1.120797 4.740535,-2.880875 7.101071,-4.869545 1.97091,-1.660423 3.522846,-3.480205 3.617679,-5.220299 0.03439,-1.252535 -0.389411,-2.558368 -1.330078,-3.566406 -0.527902,-0.565644 -1.293274,-0.75247 -2.007813,-1.019531 -0.235427,-0.72892 -0.426776,-1.483879 -0.9375,-2.058594 -0.606494,-0.682468 -1.352383,-1.132635 -2.132812,-1.423828 z"
         style="color:#000000;font-style:normal;font-variant:normal;font-weight:normal;font-stretch:normal;font-size:medium;line-height:normal;font-family:sans-serif;font-variant-ligatures:normal;font-variant-position:normal;font-variant-caps:normal;font-variant-numeric:normal;font-variant-alternates:normal;font-variant-east-asian:normal;font-feature-settings:normal;font-variation-settings:normal;text-indent:0;text-align:start;text-decoration:none;text-decoration-line:none;text-decoration-style:solid;text-decoration-color:#000000;letter-spacing:normal;word-spacing:normal;text-transform:none;writing-mode:lr-tb;direction:ltr;text-orientation:mixed;dominant-baseline:auto;baseline-shift:baseline;text-anchor:start;white-space:normal;shape-padding:0;shape-margin:0;inline-size:0;clip-rule:nonzero;display:inline;overflow:visible;visibility:visible;isolation:auto;mix-blend-mode:normal;color-interpolation:sRGB;color-interpolation-filters:linearRGB;solid-color:#000000;solid-opacity:1;vector-effect:none;fill:#349951;fill-opacity:1;fill-rule:nonzero;stroke:none;stroke-width:1.57311;stroke-linecap:round;stroke-linejoin:round;stroke-miterlimit:4;stroke-dasharray:none;stroke-dashoffset:0;stroke-opacity:1;color-rendering:auto;image-rendering:auto;shape-rendering:auto;text-rendering:auto;enable-background:accumulate;stop-color:#000000"
         id="path1838" />
      <path
         sodipodi:nodetypes="cccscscccccscscsscccc"
         id="path1485"
         d="m 14.228073,259.92784 c -0.132874,-0.0123 -0.362101,-0.0237 -0.665593,0.0563 -0.370908,0.0978 -0.799088,0.378 -0.960148,0.91571 -0.533882,0.045 -0.888889,0.31744 -1.067119,0.61392 -0.168059,0.27956 -0.204121,0.55204 -0.212906,0.70538 -0.154477,0.25509 -0.25071,0.48754 -0.27957,0.71417 -0.0291,0.22853 0.02052,0.45804 0.152446,0.63097 0.219926,0.28829 0.589374,0.40212 1.043347,0.43356 0.01881,0.20046 0.09953,0.3797 0.220658,0.51212 0.160425,0.17537 0.379547,0.27179 0.605131,0.29249 0.343813,0.0315 0.719682,-0.14485 0.915707,-0.49455 0.259324,0.15924 0.526753,0.22131 0.772045,0.19017 0.348161,-0.0442 0.627489,-0.25621 0.802535,-0.51573 0.175047,-0.25951 0.259812,-0.57696 0.183969,-0.8847 -0.03827,-0.15528 -0.12721,-0.30023 -0.256315,-0.41548 0.262978,-0.19792 0.453633,-0.47256 0.537434,-0.76223 0.0688,-0.2378 0.05909,-0.50897 -0.09767,-0.72657 -0.09787,-0.13586 -0.247266,-0.2296 -0.426331,-0.28835 0.126316,-0.31332 0.08902,-0.64739 -0.08371,-0.88367 -0.123569,-0.16902 -0.314719,-0.28936 -0.53692,-0.31237 -0.215555,-0.0222 -0.446476,0.0546 -0.64699,0.21886 z"
         style="color:#000000;font-style:normal;font-variant:normal;font-weight:normal;font-stretch:normal;font-size:medium;line-height:normal;font-family:sans-serif;font-variant-ligatures:normal;font-variant-position:normal;font-variant-caps:normal;font-variant-numeric:normal;font-variant-alternates:normal;font-variant-east-asian:normal;font-feature-settings:normal;font-variation-settings:normal;text-indent:0;text-align:start;text-decoration:none;text-decoration-line:none;text-decoration-style:solid;text-decoration-color:#000000;letter-spacing:normal;word-spacing:normal;text-transform:none;writing-mode:lr-tb;direction:ltr;text-orientation:mixed;dominant-baseline:auto;baseline-shift:baseline;text-anchor:start;white-space:normal;shape-padding:0;shape-margin:0;inline-size:0;clip-rule:nonzero;display:inline;overflow:visible;visibility:visible;isolation:auto;mix-blend-mode:normal;color-interpolation:sRGB;color-interpolation-filters:linearRGB;solid-color:#000000;solid-opacity:1;vector-effect:none;fill:#87e59d;fill-opacity:1;fill-rule:nonzero;stroke:none;stroke-width:0.416219;stroke-linecap:round;stroke-linejoin:round;stroke-miterlimit:4;stroke-dasharray:none;stroke-dashoffset:0;stroke-opacity:1;color-rendering:auto;image-rendering:auto;shape-rendering:auto;text-rendering:auto;enable-background:accumulate;stop-color:#000000" />
      <path
         sodipodi:nodetypes="cccscccsccccc"
         transform="matrix(0.26458334,0,0,0.26458334,0,280.06666)"
         d="m 28.212904,-93.298836 c -0.675814,0.0892 -1.386925,0.01786 -1.970703,0.382812 -1.154353,0.721435 -1.860445,1.810786 -2.248047,2.939454 0.739864,0.02737 4.729098,0.173821 9.671875,0.25 5.397123,0.08318 11.46313,0.09157 14.5625,-0.25586 -0.219494,-0.58434 -0.546851,-1.14135 -1,-1.626953 -0.527902,-0.565644 -1.293274,-0.75247 -2.007813,-1.019531 -0.235427,-0.72892 -0.426776,-1.483879 -0.9375,-2.058594 -0.984559,-1.107893 -2.325587,-1.662801 -3.609375,-1.787109 -1.339994,-0.129638 -2.613852,0.262648 -3.808594,0.849609 -0.177335,-0.201449 -0.287442,-0.447426 -0.49414,-0.626953 -0.813147,-0.706205 -1.820176,-1.184772 -3.469727,-1.266602 -2.677571,0.343972 -3.983572,2.132294 -4.688476,4.219727 z"
         style="color:#000000;font-style:normal;font-variant:normal;font-weight:normal;font-stretch:normal;font-size:medium;line-height:normal;font-family:sans-serif;font-variant-ligatures:normal;font-variant-position:normal;font-variant-caps:normal;font-variant-numeric:normal;font-variant-alternates:normal;font-variant-east-asian:normal;font-feature-settings:normal;font-variation-settings:normal;text-indent:0;text-align:start;text-decoration:none;text-decoration-line:none;text-decoration-style:solid;text-decoration-color:#000000;letter-spacing:normal;word-spacing:normal;text-transform:none;writing-mode:lr-tb;direction:ltr;text-orientation:mixed;dominant-baseline:auto;baseline-shift:baseline;text-anchor:start;white-space:normal;shape-padding:0;shape-margin:0;inline-size:0;clip-rule:nonzero;display:inline;overflow:visible;visibility:visible;isolation:auto;mix-blend-mode:normal;color-interpolation:sRGB;color-interpolation-filters:linearRGB;solid-color:#000000;solid-opacity:1;vector-effect:none;fill:#349951;fill-opacity:1;fill-rule:nonzero;stroke:none;stroke-width:1.57311;stroke-linecap:round;stroke-linejoin:round;stroke-miterlimit:4;stroke-dasharray:none;stroke-dashoffset:0;stroke-opacity:1;color-rendering:auto;image-rendering:auto;shape-rendering:auto;text-rendering:auto;enable-background:accumulate;stop-color:#000000"
         id="path1945" />
      <path
         transform="matrix(0.26458334,0,0,0.26458334,0,280.06666)"
         d="m 12.546875,-94.917969 c -0.70096,0.799982 -1.206221,1.840964 -1.251953,3.048828 -0.03451,0.911207 0.541183,1.637947 0.996094,2.400391 -0.199113,0.738746 -0.436309,1.585429 -0.324219,2.759766 0.133716,1.400844 0.80315,2.94673 2.007812,4.378906 0.455491,1.083401 1.318192,2.782149 3.054688,4.140625 0.584682,0.457371 1.281861,0.82973 2.046875,1.103515 1.100474,-3.732029 -1.25586,-7.732421 -1.25586,-7.732421 0.862016,-3.854476 1.417843,-6.742797 -2.474609,-8.564453 -0.940443,-0.893629 -1.888906,-1.388976 -2.798828,-1.535157 z"
         style="color:#000000;font-style:normal;font-variant:normal;font-weight:normal;font-stretch:normal;font-size:medium;line-height:normal;font-family:sans-serif;font-variant-ligatures:normal;font-variant-position:normal;font-variant-caps:normal;font-variant-numeric:normal;font-variant-alternates:normal;font-variant-east-asian:normal;font-feature-settings:normal;font-variation-settings:normal;text-indent:0;text-align:start;text-decoration:none;text-decoration-line:none;text-decoration-style:solid;text-decoration-color:#000000;letter-spacing:normal;word-spacing:normal;text-transform:none;writing-mode:lr-tb;direction:ltr;text-orientation:mixed;dominant-baseline:auto;baseline-shift:baseline;text-anchor:start;white-space:normal;shape-padding:0;shape-margin:0;inline-size:0;clip-rule:nonzero;display:inline;overflow:visible;visibility:visible;isolation:auto;mix-blend-mode:normal;color-interpolation:sRGB;color-interpolation-filters:linearRGB;solid-color:#000000;solid-opacity:1;vector-effect:none;fill:#349951;fill-opacity:1;fill-rule:nonzero;stroke:none;stroke-width:1.57311;stroke-linecap:round;stroke-linejoin:round;stroke-miterlimit:4;stroke-dasharray:none;stroke-dashoffset:0;stroke-opacity:1;color-rendering:auto;image-rendering:auto;shape-rendering:auto;text-rendering:auto;enable-background:accumulate;stop-color:#000000"
         id="path2231" />
      <path
         sodipodi:nodetypes="cccccccccccscscc"
         id="path1973"
         d="m 4.795573,259.01006 c 0.3574358,0.27961 0.9005585,0.43539 1.539441,0.21136 0.3112254,0.0817 0.6496801,0.0461 0.9544637,-0.0729 0.3261403,-0.1272 0.6151973,-0.36539 0.7580933,-0.70487 0.2915526,-0.42534 0.2932094,-0.96861 0.091984,-1.47226 0.3491156,-0.42064 0.4334441,-1.01188 0.297398,-1.51696 0.1068256,-0.28588 0.022879,-0.57029 -0.1356505,-0.76714 -0.6281334,-0.59005 -1.3377219,-0.57939 -1.9249474,-0.005 -0.2187055,-0.29019 -0.5558504,-0.43592 -0.8676474,-0.41135 -0.4501425,0.0881 -0.6453602,0.28944 -0.7710123,0.66973 -0.3145813,-0.0792 -0.6936478,0.0166 -0.9208741,0.18606 -0.2000306,0.15338 -0.3489643,0.38104 -0.3591512,0.65009 -0.00795,0.20988 0.084197,0.42467 0.2573486,0.60099 -0.052497,0.16161 -0.1096788,0.4081 -0.081649,0.70177 0.029154,0.30543 0.1638358,0.65853 0.4842082,0.9971 0.1019985,0.24687 0.3027134,0.63943 0.6779951,0.93301 z"
         style="color:#000000;font-style:normal;font-variant:normal;font-weight:normal;font-stretch:normal;font-size:medium;line-height:normal;font-family:sans-serif;font-variant-ligatures:normal;font-variant-position:normal;font-variant-caps:normal;font-variant-numeric:normal;font-variant-alternates:normal;font-variant-east-asian:normal;font-feature-settings:normal;font-variation-settings:normal;text-indent:0;text-align:start;text-decoration:none;text-decoration-line:none;text-decoration-style:solid;text-decoration-color:#000000;letter-spacing:normal;word-spacing:normal;text-transform:none;writing-mode:lr-tb;direction:ltr;text-orientation:mixed;dominant-baseline:auto;baseline-shift:baseline;text-anchor:start;white-space:normal;shape-padding:0;shape-margin:0;inline-size:0;clip-rule:nonzero;display:inline;overflow:visible;visibility:visible;isolation:auto;mix-blend-mode:normal;color-interpolation:sRGB;color-interpolation-filters:linearRGB;solid-color:#000000;solid-opacity:1;vector-effect:none;fill:#87e59d;fill-opacity:1;fill-rule:nonzero;stroke:none;stroke-width:0.416219;stroke-linecap:round;stroke-linejoin:round;stroke-miterlimit:4;stroke-dasharray:none;stroke-dashoffset:0;stroke-opacity:1;color-rendering:auto;image-rendering:auto;shape-rendering:auto;text-rendering:auto;enable-background:accumulate;stop-color:#000000" />
      <path
         transform="matrix(0.26458334,0,0,0.26458334,0,280.06666)"
         d="m 30.496094,-96.71875 c -1.068436,0.780636 -1.813204,2.028112 -2.283203,3.419922 -0.675814,0.0892 -1.386925,0.01786 -1.970703,0.382812 -1.432846,0.895484 -2.200577,2.355911 -2.488282,3.757813 -0.286601,1.396573 -0.15764,2.951423 0.605469,4.347656 0.434929,0.79578 1.286622,1.293066 2.089844,1.808594 0.280048,1.436058 1.004032,2.679856 2.052734,3.457031 0.824796,-0.514515 1.519029,-1.241201 1.914063,-2.179687 1.101931,-1.607585 1.108193,-3.660894 0.347656,-5.564453 1.319492,-1.589821 1.63919,-3.825412 1.125,-5.734376 0.40375,-1.080491 0.0855,-2.154437 -0.513672,-2.898437 -0.248516,-0.30859 -0.550742,-0.567703 -0.878906,-0.796875 z"
         style="color:#000000;font-style:normal;font-variant:normal;font-weight:normal;font-stretch:normal;font-size:medium;line-height:normal;font-family:sans-serif;font-variant-ligatures:normal;font-variant-position:normal;font-variant-caps:normal;font-variant-numeric:normal;font-variant-alternates:normal;font-variant-east-asian:normal;font-feature-settings:normal;font-variation-settings:normal;text-indent:0;text-align:start;text-decoration:none;text-decoration-line:none;text-decoration-style:solid;text-decoration-color:#000000;letter-spacing:normal;word-spacing:normal;text-transform:none;writing-mode:lr-tb;direction:ltr;text-orientation:mixed;dominant-baseline:auto;baseline-shift:baseline;text-anchor:start;white-space:normal;shape-padding:0;shape-margin:0;inline-size:0;clip-rule:nonzero;display:inline;overflow:visible;visibility:visible;isolation:auto;mix-blend-mode:normal;color-interpolation:sRGB;color-interpolation-filters:linearRGB;solid-color:#000000;solid-opacity:1;vector-effect:none;fill:#349951;fill-opacity:1;fill-rule:nonzero;stroke:none;stroke-width:1.57311;stroke-linecap:round;stroke-linejoin:round;stroke-miterlimit:4;stroke-dasharray:none;stroke-dashoffset:0;stroke-opacity:1;color-rendering:auto;image-rendering:auto;shape-rendering:auto;text-rendering:auto;enable-background:accumulate;stop-color:#000000"
         id="path2047" />
      <path
         sodipodi:nodetypes="ccccccccssccccc"
         id="path1693"
         d="m 11.513509,257.69541 c 0.536687,-0.0751 0.871434,-0.50564 0.883151,-0.93586 -0.03644,-0.52808 -0.337344,-0.75792 -0.768946,-0.89245 -0.09926,-0.48201 -0.44819,-0.82656 -0.908988,-0.87695 -0.377331,-0.0365 -0.7704329,0.092 -1.0852053,0.34365 -0.2304415,-0.41985 -0.5740828,-0.61925 -1.0066568,-0.61925 -0.4302067,0.0659 -0.7410088,0.46408 -0.8480103,1.03921 -0.220763,-0.0328 -0.4307694,0.007 -0.5973797,0.11111 -0.2521222,0.15757 -0.3977174,0.42332 -0.4547526,0.70124 -0.057035,0.27791 -0.028992,0.57998 0.1152385,0.84388 0.1099849,0.20123 0.2975544,0.37309 0.541569,0.46716 0.010464,0.37718 0.2296735,0.67883 0.5053955,0.83147 0.2925387,0.16196 0.6318734,0.20821 0.9585979,0.2235 0.337499,0.17071 0.7095212,0.17119 1.037146,0.0757 0.5834548,-0.32607 1.2257748,-0.49027 1.6288408,-1.31241 z"
         style="color:#000000;font-style:normal;font-variant:normal;font-weight:normal;font-stretch:normal;font-size:medium;line-height:normal;font-family:sans-serif;font-variant-ligatures:normal;font-variant-position:normal;font-variant-caps:normal;font-variant-numeric:normal;font-variant-alternates:normal;font-variant-east-asian:normal;font-feature-settings:normal;font-variation-settings:normal;text-indent:0;text-align:start;text-decoration:none;text-decoration-line:none;text-decoration-style:solid;text-decoration-color:#000000;letter-spacing:normal;word-spacing:normal;text-transform:none;writing-mode:lr-tb;direction:ltr;text-orientation:mixed;dominant-baseline:auto;baseline-shift:baseline;text-anchor:start;white-space:normal;shape-padding:0;shape-margin:0;inline-size:0;clip-rule:nonzero;display:inline;overflow:visible;visibility:visible;isolation:auto;mix-blend-mode:normal;color-interpolation:sRGB;color-interpolation-filters:linearRGB;solid-color:#000000;solid-opacity:1;vector-effect:none;fill:#87e59d;fill-opacity:1;fill-rule:nonzero;stroke:none;stroke-width:0.416219;stroke-linecap:round;stroke-linejoin:round;stroke-miterlimit:4;stroke-dasharray:none;stroke-dashoffset:0;stroke-opacity:1;color-rendering:auto;image-rendering:auto;shape-rendering:auto;text-rendering:auto;enable-background:accumulate;stop-color:#000000" />
      <path
         id="path1937"
         d="m 5.1842448,256.76953 a 0.26460996,0.26460996 0 0 0 -0.2578125,0.26367 v 0.41992 L 4.498698,257.11523 a 0.26460996,0.26460996 0 0 0 -0.3554688,0.0274 l -0.8105469,0.85547 a 0.26460996,0.26460996 0 0 0 0.029297,0.39062 l 0.578125,0.45313 -0.9707031,0.13086 a 0.26460996,0.26460996 0 0 0 -0.2148438,0.3457 l 0.3515625,1.05664 a 0.26460996,0.26460996 0 0 0 0.2929688,0.17773 l 1.4550781,-0.24023 1.4082031,1.17383 a 0.26460996,0.26460996 0 0 0 0.3183594,0.0156 l 1.4648437,-1.00586 a 0.26460996,0.26460996 0 0 0 0.021484,-0.41992 l -1.5214841,-1.2969 0.027344,-0.92774 a 0.26460996,0.26460996 0 0 0 -0.109375,-0.22265 l -1.1171875,-0.8086 a 0.26460996,0.26460996 0 0 0 -0.1621094,-0.0508 z"
         style="color:#000000;font-style:normal;font-variant:normal;font-weight:normal;font-stretch:normal;font-size:medium;line-height:normal;font-family:sans-serif;font-variant-ligatures:normal;font-variant-position:normal;font-variant-caps:normal;font-variant-numeric:normal;font-variant-alternates:normal;font-variant-east-asian:normal;font-feature-settings:normal;font-variation-settings:normal;text-indent:0;text-align:start;text-decoration:none;text-decoration-line:none;text-decoration-style:solid;text-decoration-color:#000000;letter-spacing:normal;word-spacing:normal;text-transform:none;writing-mode:lr-tb;direction:ltr;text-orientation:mixed;dominant-baseline:auto;baseline-shift:baseline;text-anchor:start;white-space:normal;shape-padding:0;shape-margin:0;inline-size:0;clip-rule:nonzero;display:inline;overflow:visible;visibility:visible;isolation:auto;mix-blend-mode:normal;color-interpolation:sRGB;color-interpolation-filters:linearRGB;solid-color:#000000;solid-opacity:1;vector-effect:none;fill:#50b86b;fill-opacity:1;fill-rule:nonzero;stroke:none;stroke-width:0.416219;stroke-linecap:round;stroke-linejoin:round;stroke-miterlimit:4;stroke-dasharray:none;stroke-dashoffset:0;stroke-opacity:1;color-rendering:auto;image-rendering:auto;shape-rendering:auto;text-rendering:auto;enable-background:accumulate;stop-color:#000000" />
      <path
         transform="matrix(0.26458334,0,0,0.26458334,0,280.06666)"
         d="m 27.710938,-77.923828 -7.271485,5.007812 3.228516,2.691407 a 1.0001006,1.0001006 0 0 0 1.203125,0.05859 l 5.537109,-3.800781 a 1.0001006,1.0001006 0 0 0 0.08203,-1.587891 z"
         style="color:#000000;font-style:normal;font-variant:normal;font-weight:normal;font-stretch:normal;font-size:medium;line-height:normal;font-family:sans-serif;font-variant-ligatures:normal;font-variant-position:normal;font-variant-caps:normal;font-variant-numeric:normal;font-variant-alternates:normal;font-variant-east-asian:normal;font-feature-settings:normal;font-variation-settings:normal;text-indent:0;text-align:start;text-decoration:none;text-decoration-line:none;text-decoration-style:solid;text-decoration-color:#000000;letter-spacing:normal;word-spacing:normal;text-transform:none;writing-mode:lr-tb;direction:ltr;text-orientation:mixed;dominant-baseline:auto;baseline-shift:baseline;text-anchor:start;white-space:normal;shape-padding:0;shape-margin:0;inline-size:0;clip-rule:nonzero;display:inline;overflow:visible;visibility:visible;isolation:auto;mix-blend-mode:normal;color-interpolation:sRGB;color-interpolation-filters:linearRGB;solid-color:#000000;solid-opacity:1;vector-effect:none;fill:#349951;fill-opacity:1;fill-rule:nonzero;stroke:none;stroke-width:1.57311;stroke-linecap:round;stroke-linejoin:round;stroke-miterlimit:4;stroke-dasharray:none;stroke-dashoffset:0;stroke-opacity:1;color-rendering:auto;image-rendering:auto;shape-rendering:auto;text-rendering:auto;enable-background:accumulate;stop-color:#000000"
         id="path2059" />
      <path
         id="path1793"
         d="M 9.0820312,257.46484 A 0.26460996,0.26460996 0 0 0 8.8125,257.67969 l -0.3476562,1.88281 -3.3320313,2.29492 a 0.26460996,0.26460996 0 0 0 -0.041016,0.40039 l 1.6992187,1.78125 a 0.26460996,0.26460996 0 0 0 0.3417969,0.0352 l 2.8105469,-1.94922 3.03711,0.85352 a 0.26460996,0.26460996 0 0 0 0.328125,-0.18946 l 0.345703,-1.38476 a 0.26460996,0.26460996 0 0 0 -0.177735,-0.31641 l -1.552734,-0.47656 1.544922,-0.92578 a 0.26460996,0.26460996 0 0 0 0.0332,-0.43164 l -1.082031,-0.88672 a 0.26460996,0.26460996 0 0 0 -0.302734,-0.0234 l -1.757813,1.04297 0.208984,-1.58008 a 0.26460996,0.26460996 0 0 0 -0.253906,-0.29883 z"
         style="color:#000000;font-style:normal;font-variant:normal;font-weight:normal;font-stretch:normal;font-size:medium;line-height:normal;font-family:sans-serif;font-variant-ligatures:normal;font-variant-position:normal;font-variant-caps:normal;font-variant-numeric:normal;font-variant-alternates:normal;font-variant-east-asian:normal;font-feature-settings:normal;font-variation-settings:normal;text-indent:0;text-align:start;text-decoration:none;text-decoration-line:none;text-decoration-style:solid;text-decoration-color:#000000;letter-spacing:normal;word-spacing:normal;text-transform:none;writing-mode:lr-tb;direction:ltr;text-orientation:mixed;dominant-baseline:auto;baseline-shift:baseline;text-anchor:start;white-space:normal;shape-padding:0;shape-margin:0;inline-size:0;clip-rule:nonzero;display:inline;overflow:visible;visibility:visible;isolation:auto;mix-blend-mode:normal;color-interpolation:sRGB;color-interpolation-filters:linearRGB;solid-color:#000000;solid-opacity:1;vector-effect:none;fill:#50b86b;fill-opacity:1;fill-rule:nonzero;stroke:none;stroke-width:0.416219;stroke-linecap:round;stroke-linejoin:round;stroke-miterlimit:4;stroke-dasharray:none;stroke-dashoffset:0;stroke-opacity:1;color-rendering:auto;image-rendering:auto;shape-rendering:auto;text-rendering:auto;enable-background:accumulate;stop-color:#000000" />
      <path
         id="path1810"
         d="m 6.0507812,261.61914 c -0.3398729,-0.0549 -0.6965797,0.0226 -0.9511718,0.26563 -0.2545935,0.24299 -0.347635,0.59543 -0.3085938,0.9375 0.039041,0.34206 0.2024967,0.6856 0.4746094,0.9707 0.272108,0.28509 0.6093458,0.46459 0.9492188,0.51953 0.3398729,0.0549 0.6965797,-0.0207 0.9511718,-0.26367 0.2545935,-0.243 0.3456818,-0.59544 0.3066406,-0.9375 -0.039041,-0.34207 -0.2024967,-0.68756 -0.4746093,-0.97266 -0.2721081,-0.28509 -0.6073927,-0.46459 -0.9472657,-0.51953 z"
         style="color:#000000;font-style:normal;font-variant:normal;font-weight:normal;font-stretch:normal;font-size:medium;line-height:normal;font-family:sans-serif;font-variant-ligatures:normal;font-variant-position:normal;font-variant-caps:normal;font-variant-numeric:normal;font-variant-alternates:normal;font-variant-east-asian:normal;font-feature-settings:normal;font-variation-settings:normal;text-indent:0;text-align:start;text-decoration:none;text-decoration-line:none;text-decoration-style:solid;text-decoration-color:#000000;letter-spacing:normal;word-spacing:normal;text-transform:none;writing-mode:lr-tb;direction:ltr;text-orientation:mixed;dominant-baseline:auto;baseline-shift:baseline;text-anchor:start;white-space:normal;shape-padding:0;shape-margin:0;inline-size:0;clip-rule:nonzero;display:inline;overflow:visible;visibility:visible;isolation:auto;mix-blend-mode:normal;color-interpolation:sRGB;color-interpolation-filters:linearRGB;solid-color:#000000;solid-opacity:1;vector-effect:none;fill:#349951;fill-opacity:1;fill-rule:nonzero;stroke:none;stroke-width:0.416219;stroke-linecap:round;stroke-linejoin:round;stroke-miterlimit:4;stroke-dasharray:none;stroke-dashoffset:0;stroke-opacity:1;color-rendering:auto;image-rendering:auto;shape-rendering:auto;text-rendering:auto;enable-background:accumulate;stop-color:#000000" />
      <path
         d="m 5.7944786,261.60319 c -0.2556417,0.01 -0.504104,0.0994 -0.695048,0.28163 -0.1010306,0.0964 -0.1753852,0.21042 -0.2273766,0.33383 0.2021163,-0.0848 0.4291799,-0.10588 0.649573,-0.0703 0.3398729,0.0549 0.6751209,0.23426 0.947229,0.51935 0.2721126,0.2851 0.4353486,0.63048 0.4743897,0.97255 0.023566,0.20649 -9.789e-4,0.41641 -0.079582,0.6041 0.1099453,-0.0457 0.2125388,-0.10967 0.3023071,-0.19534 0.2545938,-0.243 0.3454827,-0.59586 0.3064415,-0.93792 -0.039041,-0.34207 -0.2022771,-0.68745 -0.4743897,-0.97256 -0.2721081,-0.28508 -0.6073561,-0.4644 -0.947229,-0.51934 -0.084968,-0.0137 -0.1711013,-0.0194 -0.256315,-0.016 z"
         style="color:#000000;font-style:normal;font-variant:normal;font-weight:normal;font-stretch:normal;font-size:medium;line-height:normal;font-family:sans-serif;font-variant-ligatures:normal;font-variant-position:normal;font-variant-caps:normal;font-variant-numeric:normal;font-variant-alternates:normal;font-variant-east-asian:normal;font-feature-settings:normal;font-variation-settings:normal;text-indent:0;text-align:start;text-decoration:none;text-decoration-line:none;text-decoration-style:solid;text-decoration-color:#000000;letter-spacing:normal;word-spacing:normal;text-transform:none;writing-mode:lr-tb;direction:ltr;text-orientation:mixed;dominant-baseline:auto;baseline-shift:baseline;text-anchor:start;white-space:normal;shape-padding:0;shape-margin:0;inline-size:0;clip-rule:nonzero;display:inline;overflow:visible;visibility:visible;isolation:auto;mix-blend-mode:normal;color-interpolation:sRGB;color-interpolation-filters:linearRGB;solid-color:#000000;solid-opacity:1;vector-effect:none;fill:#26783f;fill-opacity:1;fill-rule:nonzero;stroke:none;stroke-width:0.416219;stroke-linecap:round;stroke-linejoin:round;stroke-miterlimit:4;stroke-dasharray:none;stroke-dashoffset:0;stroke-opacity:1;color-rendering:auto;image-rendering:auto;shape-rendering:auto;text-rendering:auto;enable-background:accumulate;stop-color:#000000"
         id="path2237" />
    </g>
  </g>
</svg>
