<?xml version="1.0" encoding="UTF-8" standalone="no"?>
<svg
   xmlns:dc="http://purl.org/dc/elements/1.1/"
   xmlns:cc="http://creativecommons.org/ns#"
   xmlns:rdf="http://www.w3.org/1999/02/22-rdf-syntax-ns#"
   xmlns:svg="http://www.w3.org/2000/svg"
   xmlns="http://www.w3.org/2000/svg"
   xmlns:sodipodi="http://sodipodi.sourceforge.net/DTD/sodipodi-0.dtd"
   xmlns:inkscape="http://www.inkscape.org/namespaces/inkscape"
   inkscape:export-ydpi="576"
   inkscape:export-xdpi="576"
   inkscape:export-filename="E:\Project\27-3-2022\4 - Icon-Icons\016 - Vegetables\Send\4 - Filledline\22 - Carrot.png"
   sodipodi:docname="22 - Carrot.svg"
   inkscape:version="1.0 (4035a4fb49, 2020-05-01)"
   id="svg831"
   version="1.1"
   viewBox="0 0 22.577778 22.577778"
   height="64pt"
   width="64pt">
  <defs
     id="defs825">
    <pattern
       y="0"
       x="0"
       height="6"
       width="6"
       patternUnits="userSpaceOnUse"
       id="EMFhbasepattern" />
    <pattern
       y="0"
       x="0"
       height="6"
       width="6"
       patternUnits="userSpaceOnUse"
       id="EMFhbasepattern-9" />
    <pattern
       y="0"
       x="0"
       height="6"
       width="6"
       patternUnits="userSpaceOnUse"
       id="EMFhbasepattern-0" />
    <pattern
       y="0"
       x="0"
       height="6"
       width="6"
       patternUnits="userSpaceOnUse"
       id="EMFhbasepattern-7" />
    <pattern
       y="0"
       x="0"
       height="6"
       width="6"
       patternUnits="userSpaceOnUse"
       id="EMFhbasepattern-2" />
    <pattern
       y="0"
       x="0"
       height="6"
       width="6"
       patternUnits="userSpaceOnUse"
       id="EMFhbasepattern-98" />
    <pattern
       y="0"
       x="0"
       height="6"
       width="6"
       patternUnits="userSpaceOnUse"
       id="EMFhbasepattern-6" />
    <pattern
       y="0"
       x="0"
       height="6"
       width="6"
       patternUnits="userSpaceOnUse"
       id="EMFhbasepattern-01" />
    <pattern
       y="0"
       x="0"
       height="6"
       width="6"
       patternUnits="userSpaceOnUse"
       id="EMFhbasepattern-07" />
    <pattern
       y="0"
       x="0"
       height="6"
       width="6"
       patternUnits="userSpaceOnUse"
       id="EMFhbasepattern-8" />
    <pattern
       y="0"
       x="0"
       height="6"
       width="6"
       patternUnits="userSpaceOnUse"
       id="EMFhbasepattern-4" />
    <pattern
       y="0"
       x="0"
       height="6"
       width="6"
       patternUnits="userSpaceOnUse"
       id="EMFhbasepattern-40" />
    <pattern
       y="0"
       x="0"
       height="6"
       width="6"
       patternUnits="userSpaceOnUse"
       id="EMFhbasepattern-08" />
    <pattern
       y="0"
       x="0"
       height="6"
       width="6"
       patternUnits="userSpaceOnUse"
       id="EMFhbasepattern-04" />
    <pattern
       y="0"
       x="0"
       height="6"
       width="6"
       patternUnits="userSpaceOnUse"
       id="EMFhbasepattern-014" />
    <pattern
       y="0"
       x="0"
       height="6"
       width="6"
       patternUnits="userSpaceOnUse"
       id="EMFhbasepattern-27" />
    <pattern
       y="0"
       x="0"
       height="6"
       width="6"
       patternUnits="userSpaceOnUse"
       id="EMFhbasepattern-09" />
    <pattern
       y="0"
       x="0"
       height="6"
       width="6"
       patternUnits="userSpaceOnUse"
       id="EMFhbasepattern-5" />
    <pattern
       y="0"
       x="0"
       height="6"
       width="6"
       patternUnits="userSpaceOnUse"
       id="EMFhbasepattern-018" />
  </defs>
  <sodipodi:namedview
     inkscape:document-rotation="0"
     inkscape:snap-global="true"
     inkscape:snap-nodes="false"
     inkscape:bbox-nodes="true"
     inkscape:snap-bbox="true"
     showguides="true"
     inkscape:snap-midpoints="true"
     inkscape:snap-smooth-nodes="true"
     inkscape:snap-intersection-paths="true"
     inkscape:object-paths="true"
     inkscape:showpageshadow="false"
     inkscape:pagecheckerboard="true"
     inkscape:window-maximized="1"
     inkscape:window-y="-8"
     inkscape:window-x="-8"
     inkscape:window-height="716"
     inkscape:window-width="1366"
     units="pt"
     showgrid="false"
     inkscape:current-layer="layer1"
     inkscape:document-units="pt"
     inkscape:cy="42.666667"
     inkscape:cx="13.899378"
     inkscape:zoom="4.7808578"
     inkscape:pageshadow="2"
     inkscape:pageopacity="0.0"
     borderopacity="1.0"
     bordercolor="#666666"
     pagecolor="#ffffff"
     id="base">
    <inkscape:grid
       id="grid1378"
       type="xygrid" />
    <sodipodi:guide
       inkscape:locked="false"
       id="guide1380"
       orientation="78.000048,0"
       position="0.97013831,21.607643" />
    <sodipodi:guide
       inkscape:locked="false"
       id="guide1382"
       orientation="0,78.000005"
       position="0.97013831,0.97013129" />
    <sodipodi:guide
       inkscape:locked="false"
       id="guide1384"
       orientation="-78.000048,0"
       position="21.607639,0.97013129" />
    <sodipodi:guide
       inkscape:locked="false"
       id="guide1386"
       orientation="0,-78.000005"
       position="21.607639,21.607643" />
  </sodipodi:namedview>
  <metadata
     id="metadata828">
    <rdf:RDF>
      <cc:Work
         rdf:about="">
        <dc:format>image/svg+xml</dc:format>
        <dc:type
           rdf:resource="http://purl.org/dc/dcmitype/StillImage" />
        <dc:title></dc:title>
      </cc:Work>
    </rdf:RDF>
  </metadata>
  <g
     transform="translate(0,-274.42223)"
     id="layer1"
     inkscape:groupmode="layer"
     inkscape:label="Icon">
    <g
       transform="matrix(1.2547981,0,0,1.2547981,-37.609683,-152.89015)"
       style="display:inline;stroke-width:0.796941"
       id="g356">
      <g
         id="g1566"
         style="display:inline;stroke-width:0.796941">
        <path
           sodipodi:nodetypes="ccccsccscccscccc"
           id="path1683"
           d="m 44.517584,346.91213 c -0.05574,-0.21446 -0.09167,-0.44361 -0.207031,-0.61133 -0.14002,-0.20372 -0.342584,-0.3646 -0.589844,-0.41016 l -6e-6,-2e-5 c -0.394082,-0.0727 -0.759199,0.15384 -1.027344,0.48438 -0.268144,0.33054 -0.469726,0.78825 -0.566406,1.3125 -0.02821,0.15359 -0.03001,0.30423 -0.02148,0.45117 -0.04177,0.59327 0.227614,1.06785 0.55664,1.44727 0.329949,0.38048 0.721578,0.69673 1,1.02734 0.01633,0.0196 0.03541,0.0367 0.05664,0.0508 0.376039,0.24525 0.919216,0.50978 1.533203,0.45508 0.531045,-0.0472 1.005174,-0.2034 1.359375,-0.43945 0.354201,-0.23605 0.613644,-0.57938 0.578125,-0.97852 -0.0254,-0.28495 -0.201298,-0.52183 -0.433594,-0.6875 -0.13808,-0.0985 -0.334372,-0.13945 -0.511718,-0.19922 z"
           style="color:#000000;font-style:normal;font-variant:normal;font-weight:normal;font-stretch:normal;font-size:medium;line-height:normal;font-family:sans-serif;font-variant-ligatures:normal;font-variant-position:normal;font-variant-caps:normal;font-variant-numeric:normal;font-variant-alternates:normal;font-variant-east-asian:normal;font-feature-settings:normal;font-variation-settings:normal;text-indent:0;text-align:start;text-decoration:none;text-decoration-line:none;text-decoration-style:solid;text-decoration-color:#000000;letter-spacing:normal;word-spacing:normal;text-transform:none;writing-mode:lr-tb;direction:ltr;text-orientation:mixed;dominant-baseline:auto;baseline-shift:baseline;text-anchor:start;white-space:normal;shape-padding:0;shape-margin:0;inline-size:0;clip-rule:evenodd;display:inline;overflow:visible;visibility:visible;isolation:auto;mix-blend-mode:normal;color-interpolation:sRGB;color-interpolation-filters:linearRGB;solid-color:#000000;solid-opacity:1;vector-effect:none;fill:#50b86b;fill-opacity:1;fill-rule:evenodd;stroke:none;stroke-width:0.421715;stroke-linecap:round;stroke-linejoin:round;stroke-miterlimit:1.5;stroke-dasharray:none;stroke-dashoffset:0;stroke-opacity:1;color-rendering:auto;image-rendering:auto;shape-rendering:auto;text-rendering:auto;enable-background:accumulate;stop-color:#000000" />
        <path
           sodipodi:nodetypes="cscscssscccccscccc"
           id="path1689"
           d="m 39.105469,343.17969 c -0.09184,-0.13195 -0.168556,-0.28792 -0.283203,-0.38086 -0.203347,-0.16486 -0.458509,-0.26275 -0.720704,-0.21485 -0.367329,0.0673 -0.609121,0.38311 -0.730468,0.75196 -0.121347,0.36885 -0.143784,0.82163 -0.05664,1.29687 0.01279,0.0694 0.03583,0.14408 0.07227,0.25977 0.03643,0.11568 0.08397,0.25572 0.140625,0.39648 0.05665,0.14077 0.121734,0.28207 0.197265,0.4043 0.07553,0.12223 0.140016,0.25432 0.351563,0.30273 l -0.04297,-0.0137 1.519531,0.64258 c 0.01454,0.006 0.02957,0.0105 0.04492,0.0137 0.400167,0.0909 0.96005,0.14864 1.478516,-0.10351 0.434594,-0.21116 0.784374,-0.49633 1.009766,-0.8125 0.225391,-0.31618 0.339152,-0.69736 0.175781,-1.03321 -0.117424,-0.24239 -0.35151,-0.38954 -0.607422,-0.45507 -0.134486,-0.0345 -0.312682,0.0156 -0.472656,0.0254 z"
           style="color:#000000;font-style:normal;font-variant:normal;font-weight:normal;font-stretch:normal;font-size:medium;line-height:normal;font-family:sans-serif;font-variant-ligatures:normal;font-variant-position:normal;font-variant-caps:normal;font-variant-numeric:normal;font-variant-alternates:normal;font-variant-east-asian:normal;font-feature-settings:normal;font-variation-settings:normal;text-indent:0;text-align:start;text-decoration:none;text-decoration-line:none;text-decoration-style:solid;text-decoration-color:#000000;letter-spacing:normal;word-spacing:normal;text-transform:none;writing-mode:lr-tb;direction:ltr;text-orientation:mixed;dominant-baseline:auto;baseline-shift:baseline;text-anchor:start;white-space:normal;shape-padding:0;shape-margin:0;inline-size:0;clip-rule:evenodd;display:inline;overflow:visible;visibility:visible;isolation:auto;mix-blend-mode:normal;color-interpolation:sRGB;color-interpolation-filters:linearRGB;solid-color:#000000;solid-opacity:1;vector-effect:none;fill:#50b86b;fill-opacity:1;fill-rule:evenodd;stroke:none;stroke-width:0.421715;stroke-linecap:round;stroke-linejoin:round;stroke-miterlimit:1.5;stroke-dasharray:none;stroke-dashoffset:0;stroke-opacity:1;color-rendering:auto;image-rendering:auto;shape-rendering:auto;text-rendering:auto;enable-background:accumulate;stop-color:#000000" />
        <path
           sodipodi:nodetypes="ccccsccccccssscc"
           id="path1695"
           d="m 31.693359,344.21099 c -0.0948,-0.005 -0.192098,-0.0432 -0.287109,-0.0195 -0.226181,0.0564 -0.420044,0.21655 -0.572266,0.44336 -0.0072,0.01 -0.01375,0.0204 -0.01953,0.0312 -0.146016,0.30278 -0.04229,0.64213 0.154297,0.91601 0.196584,0.27389 0.49953,0.51717 0.873047,0.69727 0.451846,0.21782 0.932647,0.16647 1.275391,0.0879 0.02165,-0.005 0.04265,-0.0118 0.0625,-0.0215 l 1.164062,-0.59375 c 0.01902,-0.0102 0.03673,-0.0226 0.05273,-0.0371 0.26501,-0.23139 0.590817,-0.59028 0.679688,-1.08398 0.07354,-0.40824 0.05364,-0.79726 -0.05273,-1.11719 -0.106374,-0.31992 -0.319672,-0.60246 -0.650391,-0.66211 -0.236257,-0.0426 -0.462384,0.0467 -0.640625,0.18555 -0.08984,0.07 -0.149852,0.18546 -0.22461,0.2793 z"
           style="color:#000000;font-style:normal;font-variant:normal;font-weight:normal;font-stretch:normal;font-size:medium;line-height:normal;font-family:sans-serif;font-variant-ligatures:normal;font-variant-position:normal;font-variant-caps:normal;font-variant-numeric:normal;font-variant-alternates:normal;font-variant-east-asian:normal;font-feature-settings:normal;font-variation-settings:normal;text-indent:0;text-align:start;text-decoration:none;text-decoration-line:none;text-decoration-style:solid;text-decoration-color:#000000;letter-spacing:normal;word-spacing:normal;text-transform:none;writing-mode:lr-tb;direction:ltr;text-orientation:mixed;dominant-baseline:auto;baseline-shift:baseline;text-anchor:start;white-space:normal;shape-padding:0;shape-margin:0;inline-size:0;clip-rule:evenodd;display:inline;overflow:visible;visibility:visible;isolation:auto;mix-blend-mode:normal;color-interpolation:sRGB;color-interpolation-filters:linearRGB;solid-color:#000000;solid-opacity:1;vector-effect:none;fill:#50b86b;fill-opacity:1;fill-rule:evenodd;stroke:none;stroke-width:0.421715;stroke-linecap:round;stroke-linejoin:round;stroke-miterlimit:1.5;stroke-dasharray:none;stroke-dashoffset:0;stroke-opacity:1;color-rendering:auto;image-rendering:auto;shape-rendering:auto;text-rendering:auto;enable-background:accumulate;stop-color:#000000" />
        <path
           id="path1524"
           style="color:#000000;font-style:normal;font-variant:normal;font-weight:normal;font-stretch:normal;font-size:medium;line-height:normal;font-family:sans-serif;font-variant-ligatures:normal;font-variant-position:normal;font-variant-caps:normal;font-variant-numeric:normal;font-variant-alternates:normal;font-variant-east-asian:normal;font-feature-settings:normal;font-variation-settings:normal;text-indent:0;text-align:start;text-decoration:none;text-decoration-line:none;text-decoration-style:solid;text-decoration-color:#000000;letter-spacing:normal;word-spacing:normal;text-transform:none;writing-mode:lr-tb;direction:ltr;text-orientation:mixed;dominant-baseline:auto;baseline-shift:baseline;text-anchor:start;white-space:normal;shape-padding:0;shape-margin:0;inline-size:0;clip-rule:evenodd;display:inline;overflow:visible;visibility:visible;isolation:auto;mix-blend-mode:normal;color-interpolation:sRGB;color-interpolation-filters:linearRGB;solid-color:#000000;solid-opacity:1;vector-effect:none;fill:#349951;fill-opacity:1;fill-rule:evenodd;stroke:none;stroke-width:1.59388;stroke-linecap:round;stroke-linejoin:round;stroke-miterlimit:1.5;stroke-dasharray:none;stroke-dashoffset:0;stroke-opacity:1;color-rendering:auto;image-rendering:auto;shape-rendering:auto;text-rendering:auto;enable-background:accumulate;stop-color:#000000"
           d="m 127.67188,237.87891 c -0.0589,0.0412 -0.12322,0.0752 -0.17969,0.11914 -0.33956,0.26456 -0.56511,0.70197 -0.84766,1.05664 l -6.85937,3.38086 c -0.3583,-0.0189 -0.72489,-0.1638 -1.08399,-0.0742 -0.169,0.0421 -0.3291,0.10993 -0.48828,0.18164 0.31884,1.1459 0.77033,2.32091 1.37305,3.50195 0.36431,0.71494 0.79478,1.36831 1.26367,1.94922 0.0314,0.0389 0.0618,0.0723 0.0957,0.10938 0.0271,0.0325 1.29634,1.53608 3.06836,2.67578 0.41276,-0.0472 0.80503,-0.11525 1.1543,-0.19532 0.0818,-0.0189 0.1613,-0.0434 0.23633,-0.0801 l 4.39843,-2.24414 c 0.0719,-0.0386 0.13875,-0.0858 0.19922,-0.14063 0.28403,-0.24799 0.58359,-0.54497 0.87891,-0.87109 0.0621,-1.7985 -0.13192,-4.0799 -1.26953,-6.31055 -0.5779,-1.13268 -1.23299,-2.15449 -1.93945,-3.05859 z"
           transform="matrix(0.26458334,0,0,0.26458334,0,280.06666)" />
        <path
           id="path1701"
           d="m 32.5,342.42578 c -0.184309,-0.0591 -0.391439,-0.0668 -0.572266,0.0254 a 0.26460996,0.26460996 0 0 0 0,0.002 c -0.180814,0.0923 -0.298965,0.26336 -0.359375,0.44727 -0.06041,0.18391 -0.07391,0.38853 -0.05859,0.61133 0.03064,0.4456 0.185455,0.96572 0.453125,1.49023 0.0844,0.16563 0.183785,0.3159 0.292968,0.45117 a 0.26460996,0.26460996 0 0 0 0.01172,0.0137 c 0,0 0.479589,0.54717 0.990234,0.78906 a 0.26460996,0.26460996 0 0 0 0.277344,-0.0332 l 0.632813,-0.50391 a 0.26460996,0.26460996 0 0 0 0.09961,-0.19531 c 0.02033,-0.44476 -0.02465,-1.01113 -0.296875,-1.54492 -0.267647,-0.5246 -0.598708,-0.9558 -0.941406,-1.24219 -0.171349,-0.1432 -0.344988,-0.25147 -0.529297,-0.31055 z"
           style="color:#000000;font-style:normal;font-variant:normal;font-weight:normal;font-stretch:normal;font-size:medium;line-height:normal;font-family:sans-serif;font-variant-ligatures:normal;font-variant-position:normal;font-variant-caps:normal;font-variant-numeric:normal;font-variant-alternates:normal;font-variant-east-asian:normal;font-feature-settings:normal;font-variation-settings:normal;text-indent:0;text-align:start;text-decoration:none;text-decoration-line:none;text-decoration-style:solid;text-decoration-color:#000000;letter-spacing:normal;word-spacing:normal;text-transform:none;writing-mode:lr-tb;direction:ltr;text-orientation:mixed;dominant-baseline:auto;baseline-shift:baseline;text-anchor:start;white-space:normal;shape-padding:0;shape-margin:0;inline-size:0;clip-rule:evenodd;display:inline;overflow:visible;visibility:visible;isolation:auto;mix-blend-mode:normal;color-interpolation:sRGB;color-interpolation-filters:linearRGB;solid-color:#000000;solid-opacity:1;vector-effect:none;fill:#50b86b;fill-opacity:1;fill-rule:evenodd;stroke:none;stroke-width:0.421715;stroke-linecap:round;stroke-linejoin:round;stroke-miterlimit:1.5;stroke-dasharray:none;stroke-dashoffset:0;stroke-opacity:1;color-rendering:auto;image-rendering:auto;shape-rendering:auto;text-rendering:auto;enable-background:accumulate;stop-color:#000000" />
        <path
           id="path1707"
           d="m 34.660108,345.49428 c -0.3757,-0.14322 -0.79397,-0.14022 -1.167788,0.0504 -0.747675,0.38133 -0.993468,1.3493 -0.590435,2.13939 0.179789,0.35274 0.851863,1.42261 1.621826,2.52429 l 0.947309,1.64615 a 0.25313976,0.25313976 0 0 0 0.435352,0.004 l 1.010838,-1.66293 a 0.25313976,0.25313976 0 0 0 0.02242,-0.213 l -0.553065,-1.63677 a 0.25313976,0.25313976 0 0 0 -0.0019,-0.006 c -0.35118,-0.95427 -0.672757,-1.73928 -0.814649,-2.01795 -0.201522,-0.39509 -0.534241,-0.68451 -0.909941,-0.82772 z"
           style="color:#000000;font-style:normal;font-variant:normal;font-weight:normal;font-stretch:normal;font-size:medium;line-height:normal;font-family:sans-serif;font-variant-ligatures:normal;font-variant-position:normal;font-variant-caps:normal;font-variant-numeric:normal;font-variant-alternates:normal;font-variant-east-asian:normal;font-feature-settings:normal;font-variation-settings:normal;text-indent:0;text-align:start;text-decoration:none;text-decoration-line:none;text-decoration-style:solid;text-decoration-color:#000000;letter-spacing:normal;word-spacing:normal;text-transform:none;writing-mode:lr-tb;direction:ltr;text-orientation:mixed;dominant-baseline:auto;baseline-shift:baseline;text-anchor:start;white-space:normal;shape-padding:0;shape-margin:0;inline-size:0;clip-rule:evenodd;display:inline;overflow:visible;visibility:visible;isolation:auto;mix-blend-mode:normal;color-interpolation:sRGB;color-interpolation-filters:linearRGB;solid-color:#000000;solid-opacity:1;vector-effect:none;fill:#ff7247;fill-opacity:1;fill-rule:evenodd;stroke:none;stroke-width:0.421715;stroke-linecap:round;stroke-linejoin:round;stroke-miterlimit:1.5;stroke-dasharray:none;stroke-dashoffset:0;stroke-opacity:1;color-rendering:auto;image-rendering:auto;shape-rendering:auto;text-rendering:auto;enable-background:accumulate;stop-color:#000000" />
        <path
           d="m 34.041335,345.24511 c -0.207243,0.007 -0.414404,0.0575 -0.609783,0.1571 -0.480832,0.24523 -0.761849,0.72308 -0.80977,1.24643 0.08437,-0.0719 0.177683,-0.13561 0.280604,-0.1881 0.390757,-0.19927 0.827873,-0.20241 1.220597,-0.0527 0.392723,0.1497 0.740709,0.45208 0.951362,0.86506 0.148323,0.2913 0.484537,1.11194 0.851627,2.10944 a 0.26460996,0.26460996 0 0 1 0.0021,0.006 l 0.576707,1.70842 0.506947,-0.83302 a 0.26460996,0.26460996 0 0 0 0.02326,-0.22273 l -0.577742,-1.711 a 0.26460996,0.26460996 0 0 0 -0.0021,-0.006 c -0.367091,-0.9975 -0.703305,-1.81814 -0.851628,-2.10943 -0.210653,-0.41299 -0.558638,-0.71536 -0.951362,-0.86506 -0.196363,-0.0748 -0.403574,-0.11137 -0.610815,-0.10439 z"
           style="color:#000000;font-style:normal;font-variant:normal;font-weight:normal;font-stretch:normal;font-size:medium;line-height:normal;font-family:sans-serif;font-variant-ligatures:normal;font-variant-position:normal;font-variant-caps:normal;font-variant-numeric:normal;font-variant-alternates:normal;font-variant-east-asian:normal;font-feature-settings:normal;font-variation-settings:normal;text-indent:0;text-align:start;text-decoration:none;text-decoration-line:none;text-decoration-style:solid;text-decoration-color:#000000;letter-spacing:normal;word-spacing:normal;text-transform:none;writing-mode:lr-tb;direction:ltr;text-orientation:mixed;dominant-baseline:auto;baseline-shift:baseline;text-anchor:start;white-space:normal;shape-padding:0;shape-margin:0;inline-size:0;clip-rule:evenodd;display:inline;overflow:visible;visibility:visible;isolation:auto;mix-blend-mode:normal;color-interpolation:sRGB;color-interpolation-filters:linearRGB;solid-color:#000000;solid-opacity:1;vector-effect:none;fill:#f76336;fill-opacity:1;fill-rule:evenodd;stroke:none;stroke-width:0.421715;stroke-linecap:round;stroke-linejoin:round;stroke-miterlimit:1.5;stroke-dasharray:none;stroke-dashoffset:0;stroke-opacity:1;color-rendering:auto;image-rendering:auto;shape-rendering:auto;text-rendering:auto;enable-background:accumulate;stop-color:#000000"
           id="path2377" />
        <path
           sodipodi:nodetypes="cccccccc"
           transform="matrix(0.26458334,0,0,0.26458334,0,280.06666)"
           d="m 137.78302,257.98051 c -0.66602,-1.8098 -1.29721,-3.43281 -1.84375,-4.78711 l 1.8e-4,-4e-5 -5.50884,12.16972 3.29205,5.71895 1.60546,1.23828 4.38477,-8.625 z"
           style="fill:#f76336;fill-opacity:1;stroke:none;stroke-width:1.59388;stroke-linecap:round;stroke-linejoin:round;stroke-miterlimit:1.5;paint-order:markers fill stroke;stop-color:#000000"
           id="path2382" />
        <path
           id="path1530"
           style="color:#000000;font-style:normal;font-variant:normal;font-weight:normal;font-stretch:normal;font-size:medium;line-height:normal;font-family:sans-serif;font-variant-ligatures:normal;font-variant-position:normal;font-variant-caps:normal;font-variant-numeric:normal;font-variant-alternates:normal;font-variant-east-asian:normal;font-feature-settings:normal;font-variation-settings:normal;text-indent:0;text-align:start;text-decoration:none;text-decoration-line:none;text-decoration-style:solid;text-decoration-color:#000000;letter-spacing:normal;word-spacing:normal;text-transform:none;writing-mode:lr-tb;direction:ltr;text-orientation:mixed;dominant-baseline:auto;baseline-shift:baseline;text-anchor:start;white-space:normal;shape-padding:0;shape-margin:0;inline-size:0;clip-rule:evenodd;display:inline;overflow:visible;visibility:visible;isolation:auto;mix-blend-mode:normal;color-interpolation:sRGB;color-interpolation-filters:linearRGB;solid-color:#000000;solid-opacity:1;vector-effect:none;fill:#349951;fill-opacity:1;fill-rule:evenodd;stroke:none;stroke-width:1.59388;stroke-linecap:round;stroke-linejoin:round;stroke-miterlimit:1.5;stroke-dasharray:none;stroke-dashoffset:0;stroke-opacity:1;color-rendering:auto;image-rendering:auto;shape-rendering:auto;text-rendering:auto;enable-background:accumulate;stop-color:#000000"
           d="m 146.85352,237.2207 c -0.76285,1.00619 -1.47052,2.14378 -2.10157,3.39063 -1.3338,2.63637 -1.53546,5.37807 -1.43164,7.49219 0.0174,0.34272 0.12456,0.66517 0.2793,0.96093 0.0987,0.0417 0.18788,0.0891 0.31055,0.11719 l -0.16211,-0.0508 5.74218,2.42773 c 0.055,0.0227 0.11191,0.0406 0.16993,0.0527 0.29443,0.0669 0.6283,0.1183 0.96289,0.16797 1.759,-1.16601 3.84464,-2.93858 5.17187,-5.56446 0.63189,-1.25017 1.13016,-2.49658 1.49024,-3.70703 -0.48765,-0.0693 -1.08899,0.0777 -1.63868,0.11133 l -7.8457,-4.08203 c -0.31173,-0.44787 -0.5825,-0.9604 -0.94726,-1.31641 z"
           transform="matrix(0.26458334,0,0,0.26458334,0,280.06666)" />
        <path
           id="path1721"
           d="m 40.320312,342.07031 c -0.209342,0.0678 -0.410714,0.19425 -0.609374,0.36133 -0.397322,0.33417 -0.783852,0.84086 -1.095704,1.45703 -0.314343,0.62133 -0.367366,1.284 -0.341796,1.80469 0.0048,0.0948 0.05992,0.17972 0.144531,0.22266 l 0.970703,0.49023 c 0.08491,0.0429 0.186327,0.037 0.265625,-0.0156 0.434305,-0.28753 0.937523,-0.72116 1.250436,-1.34025 0.312914,-0.61909 0.492923,-1.23017 0.526908,-1.74769 0.01701,-0.25902 -9.88e-4,-0.49623 -0.07031,-0.70507 -0.06932,-0.20885 -0.201887,-0.39854 -0.402344,-0.5 -0.200465,-0.10146 -0.429329,-0.0952 -0.638672,-0.0274 z"
           style="color:#000000;font-style:normal;font-variant:normal;font-weight:normal;font-stretch:normal;font-size:medium;line-height:normal;font-family:sans-serif;font-variant-ligatures:normal;font-variant-position:normal;font-variant-caps:normal;font-variant-numeric:normal;font-variant-alternates:normal;font-variant-east-asian:normal;font-feature-settings:normal;font-variation-settings:normal;text-indent:0;text-align:start;text-decoration:none;text-decoration-line:none;text-decoration-style:solid;text-decoration-color:#000000;letter-spacing:normal;word-spacing:normal;text-transform:none;writing-mode:lr-tb;direction:ltr;text-orientation:mixed;dominant-baseline:auto;baseline-shift:baseline;text-anchor:start;white-space:normal;shape-padding:0;shape-margin:0;inline-size:0;clip-rule:evenodd;display:inline;overflow:visible;visibility:visible;isolation:auto;mix-blend-mode:normal;color-interpolation:sRGB;color-interpolation-filters:linearRGB;solid-color:#000000;solid-opacity:1;vector-effect:none;fill:#50b86b;fill-opacity:1;fill-rule:evenodd;stroke:none;stroke-width:0.421715;stroke-linecap:round;stroke-linejoin:round;stroke-miterlimit:1.5;stroke-dasharray:none;stroke-dashoffset:0;stroke-opacity:1;color-rendering:auto;image-rendering:auto;shape-rendering:auto;text-rendering:auto;enable-background:accumulate;stop-color:#000000"
           sodipodi:nodetypes="csccccccssscc" />
        <path
           id="path1731"
           d="m 37.787109,345.53516 c -0.452053,0.1741 -0.853517,0.52551 -1.095703,1.0039 -0.12111,0.23923 -0.349991,0.78735 -0.630859,1.51563 -0.280868,0.72828 -0.606921,1.62349 -0.896485,2.50586 -0.289563,0.88236 -0.542279,1.75008 -0.677734,2.4375 -0.06773,0.34371 -0.106414,0.64099 -0.101562,0.88867 0.0024,0.12384 0.0135,0.23527 0.05078,0.34375 0.03728,0.10848 0.109916,0.22699 0.236328,0.29101 0.126434,0.064 0.263547,0.0518 0.373047,0.0176 0.1095,-0.0342 0.207357,-0.0907 0.308594,-0.16211 0.202473,-0.14274 0.419378,-0.34932 0.65625,-0.60742 0.473743,-0.51619 1.02292,-1.23442 1.5625,-1.99023 0.53958,-0.75582 1.067711,-1.54752 1.488281,-2.20508 0.42057,-0.65756 0.726576,-1.16904 0.847656,-1.4082 0.484387,-0.95682 0.182863,-2.11906 -0.716797,-2.57422 -0.4497,-0.22775 -0.952243,-0.23075 -1.404297,-0.0566 z"
           style="color:#000000;font-style:normal;font-variant:normal;font-weight:normal;font-stretch:normal;font-size:medium;line-height:normal;font-family:sans-serif;font-variant-ligatures:normal;font-variant-position:normal;font-variant-caps:normal;font-variant-numeric:normal;font-variant-alternates:normal;font-variant-east-asian:normal;font-feature-settings:normal;font-variation-settings:normal;text-indent:0;text-align:start;text-decoration:none;text-decoration-line:none;text-decoration-style:solid;text-decoration-color:#000000;letter-spacing:normal;word-spacing:normal;text-transform:none;writing-mode:lr-tb;direction:ltr;text-orientation:mixed;dominant-baseline:auto;baseline-shift:baseline;text-anchor:start;white-space:normal;shape-padding:0;shape-margin:0;inline-size:0;clip-rule:evenodd;display:inline;overflow:visible;visibility:visible;isolation:auto;mix-blend-mode:normal;color-interpolation:sRGB;color-interpolation-filters:linearRGB;solid-color:#000000;solid-opacity:1;vector-effect:none;fill:#ff7247;fill-opacity:1;fill-rule:evenodd;stroke:none;stroke-width:0.421715;stroke-linecap:round;stroke-linejoin:round;stroke-miterlimit:1.5;stroke-dasharray:none;stroke-dashoffset:0;stroke-opacity:1;color-rendering:auto;image-rendering:auto;shape-rendering:auto;text-rendering:auto;enable-background:accumulate;stop-color:#000000" />
        <path
           d="m 38.490158,345.41306 c -0.199078,-0.006 -0.397666,0.0243 -0.589629,0.0848 0.07851,0.0259 0.156556,0.0556 0.232545,0.094 0.89966,0.45516 1.201139,1.61718 0.716751,2.574 -0.121079,0.23916 -0.426921,0.75063 -0.847492,1.40819 -0.420572,0.65756 -0.948701,1.44921 -1.488282,2.20503 -0.53958,0.75581 -1.088953,1.47439 -1.562695,1.99058 -0.17844,0.19443 -0.345702,0.3592 -0.503846,0.48989 0.0398,0.10012 0.108953,0.2036 0.224277,0.262 0.126433,0.064 0.263604,0.0518 0.373102,0.0176 0.1095,-0.0342 0.207272,-0.0909 0.308509,-0.16227 0.202473,-0.14274 0.41942,-0.34909 0.656291,-0.60719 0.473742,-0.51619 1.023115,-1.23477 1.562696,-1.99058 0.53958,-0.75582 1.06771,-1.54747 1.488281,-2.20503 0.420571,-0.65756 0.726414,-1.16903 0.847492,-1.40819 0.484389,-0.95682 0.182909,-2.11884 -0.716751,-2.574 -0.224851,-0.11387 -0.462894,-0.17135 -0.701249,-0.1788 z"
           style="color:#000000;font-style:normal;font-variant:normal;font-weight:normal;font-stretch:normal;font-size:medium;line-height:normal;font-family:sans-serif;font-variant-ligatures:normal;font-variant-position:normal;font-variant-caps:normal;font-variant-numeric:normal;font-variant-alternates:normal;font-variant-east-asian:normal;font-feature-settings:normal;font-variation-settings:normal;text-indent:0;text-align:start;text-decoration:none;text-decoration-line:none;text-decoration-style:solid;text-decoration-color:#000000;letter-spacing:normal;word-spacing:normal;text-transform:none;writing-mode:lr-tb;direction:ltr;text-orientation:mixed;dominant-baseline:auto;baseline-shift:baseline;text-anchor:start;white-space:normal;shape-padding:0;shape-margin:0;inline-size:0;clip-rule:evenodd;display:inline;overflow:visible;visibility:visible;isolation:auto;mix-blend-mode:normal;color-interpolation:sRGB;color-interpolation-filters:linearRGB;solid-color:#000000;solid-opacity:1;vector-effect:none;fill:#f76336;fill-opacity:1;fill-rule:evenodd;stroke:none;stroke-width:0.421715;stroke-linecap:round;stroke-linejoin:round;stroke-miterlimit:1.5;stroke-dasharray:none;stroke-dashoffset:0;stroke-opacity:1;color-rendering:auto;image-rendering:auto;shape-rendering:auto;text-rendering:auto;enable-background:accumulate;stop-color:#000000"
           id="path2367" />
        <path
           id="path1538"
           style="color:#000000;font-style:normal;font-variant:normal;font-weight:normal;font-stretch:normal;font-size:medium;line-height:normal;font-family:sans-serif;font-variant-ligatures:normal;font-variant-position:normal;font-variant-caps:normal;font-variant-numeric:normal;font-variant-alternates:normal;font-variant-east-asian:normal;font-feature-settings:normal;font-variation-settings:normal;text-indent:0;text-align:start;text-decoration:none;text-decoration-line:none;text-decoration-style:solid;text-decoration-color:#000000;letter-spacing:normal;word-spacing:normal;text-transform:none;writing-mode:lr-tb;direction:ltr;text-orientation:mixed;dominant-baseline:auto;baseline-shift:baseline;text-anchor:start;white-space:normal;shape-padding:0;shape-margin:0;inline-size:0;clip-rule:evenodd;display:inline;overflow:visible;visibility:visible;isolation:auto;mix-blend-mode:normal;color-interpolation:sRGB;color-interpolation-filters:linearRGB;solid-color:#000000;solid-opacity:1;vector-effect:none;fill:#349951;fill-opacity:1;fill-rule:evenodd;stroke:none;stroke-width:1.59388;stroke-linecap:round;stroke-linejoin:round;stroke-miterlimit:1.5;stroke-dasharray:none;stroke-dashoffset:0;stroke-opacity:1;color-rendering:auto;image-rendering:auto;shape-rendering:auto;text-rendering:auto;enable-background:accumulate;stop-color:#000000"
           d="m 167.8418,251.11523 c -1.12254,0.71373 -2.24252,1.56609 -3.32813,2.55469 -2.38266,2.17055 -3.65982,4.90092 -4.3789,7.10938 a 1.3287033,1.3287033 0 0 0 0,0.008 c -0.0353,0.10952 -0.0407,0.22468 -0.0586,0.33789 0.33697,0.58611 0.73566,1.12873 1.16602,1.625 1.24705,1.43803 2.72699,2.63326 3.77929,3.88281 0.0617,0.0741 0.13461,0.13812 0.21485,0.19141 0.17094,0.11148 0.37782,0.22066 0.5664,0.33203 0.0498,-0.008 0.10116,-0.002 0.15039,-0.0137 l -0.008,0.008 c 2.26346,-0.50925 5.09239,-1.52056 7.47657,-3.69141 1.09705,-0.99903 2.06132,-2.04456 2.88281,-3.10546 -0.4642,-0.21633 -1.01389,-0.3478 -1.52344,-0.51954 l -6.52539,-7.18945 c -0.13349,-0.5136 -0.24527,-1.0443 -0.41406,-1.5293 z"
           transform="matrix(0.26458334,0,0,0.26458334,0,280.06666)" />
        <path
           id="path1749"
           d="m 46.234375,346.23633 c -0.239119,-0.0121 -0.493533,0.0386 -0.763672,0.13281 -0.540278,0.18844 -1.141463,0.55919 -1.707031,1.07422 -0.5672,0.5167 -0.882031,1.18221 -1.060547,1.73047 a 0.26460996,0.26460996 0 0 0 0.05664,0.25976 l 0.814453,0.89453 a 0.26460996,0.26460996 0 0 0 0.253906,0.0781 c 0.562515,-0.12656 1.252808,-0.37585 1.820313,-0.89258 0.565559,-0.51502 0.990429,-1.0774 1.228515,-1.59765 0.119043,-0.26013 0.19279,-0.51084 0.203125,-0.75 0.01033,-0.23917 -0.049,-0.47844 -0.210937,-0.65625 -0.161917,-0.1779 -0.395647,-0.26136 -0.634766,-0.27344 z"
           style="color:#000000;font-style:normal;font-variant:normal;font-weight:normal;font-stretch:normal;font-size:medium;line-height:normal;font-family:sans-serif;font-variant-ligatures:normal;font-variant-position:normal;font-variant-caps:normal;font-variant-numeric:normal;font-variant-alternates:normal;font-variant-east-asian:normal;font-feature-settings:normal;font-variation-settings:normal;text-indent:0;text-align:start;text-decoration:none;text-decoration-line:none;text-decoration-style:solid;text-decoration-color:#000000;letter-spacing:normal;word-spacing:normal;text-transform:none;writing-mode:lr-tb;direction:ltr;text-orientation:mixed;dominant-baseline:auto;baseline-shift:baseline;text-anchor:start;white-space:normal;shape-padding:0;shape-margin:0;inline-size:0;clip-rule:evenodd;display:inline;overflow:visible;visibility:visible;isolation:auto;mix-blend-mode:normal;color-interpolation:sRGB;color-interpolation-filters:linearRGB;solid-color:#000000;solid-opacity:1;vector-effect:none;fill:#50b86b;fill-opacity:1;fill-rule:evenodd;stroke:none;stroke-width:0.421715;stroke-linecap:round;stroke-linejoin:round;stroke-miterlimit:1.5;stroke-dasharray:none;stroke-dashoffset:0;stroke-opacity:1;color-rendering:auto;image-rendering:auto;shape-rendering:auto;text-rendering:auto;enable-background:accumulate;stop-color:#000000" />
        <path
           id="path1759"
           d="m 42.168488,348.93791 c -0.518087,0.002 -1.051135,0.20165 -1.476124,0.58854 -0.212525,0.19348 -0.659139,0.66351 -1.224706,1.29328 -0.565567,0.62978 -1.240478,1.4098 -1.874201,2.19228 -0.633722,0.78249 -1.225177,1.56465 -1.626592,2.20752 -0.200708,0.32144 -0.354415,0.60571 -0.443789,0.8552 -0.04469,0.12475 -0.0742,0.24217 -0.07809,0.36189 -0.0039,0.11971 0.02305,0.2573 0.119994,0.36379 0.09696,0.10648 0.232816,0.14698 0.352365,0.15428 0.11955,0.007 0.23733,-0.0129 0.365697,-0.0457 0.256738,-0.0657 0.554513,-0.19209 0.893293,-0.36189 0.677561,-0.3396 1.51208,-0.85543 2.35037,-1.41327 0.83829,-0.55783 1.678121,-1.15664 2.357988,-1.66087 0.661686,-0.49075 1.141603,-0.86957 1.363748,-1.06853 a 0.258046,0.258046 0 0 0 0.02095,-0.0152 c 0.002,-0.002 0.01136,-0.008 0.01333,-0.01 a 0.258046,0.258046 0 0 0 0.0038,-0.004 c 0.850043,-0.77386 0.989427,-2.05177 0.264751,-2.84749 -0.362315,-0.39804 -0.864708,-0.59263 -1.382795,-0.59045 z"
           style="color:#000000;font-style:normal;font-variant:normal;font-weight:normal;font-stretch:normal;font-size:medium;line-height:normal;font-family:sans-serif;font-variant-ligatures:normal;font-variant-position:normal;font-variant-caps:normal;font-variant-numeric:normal;font-variant-alternates:normal;font-variant-east-asian:normal;font-feature-settings:normal;font-variation-settings:normal;text-indent:0;text-align:start;text-decoration:none;text-decoration-line:none;text-decoration-style:solid;text-decoration-color:#000000;letter-spacing:normal;word-spacing:normal;text-transform:none;writing-mode:lr-tb;direction:ltr;text-orientation:mixed;dominant-baseline:auto;baseline-shift:baseline;text-anchor:start;white-space:normal;shape-padding:0;shape-margin:0;inline-size:0;clip-rule:evenodd;display:inline;overflow:visible;visibility:visible;isolation:auto;mix-blend-mode:normal;color-interpolation:sRGB;color-interpolation-filters:linearRGB;solid-color:#000000;solid-opacity:1;vector-effect:none;fill:#ff7247;fill-opacity:1;fill-rule:evenodd;stroke:none;stroke-width:0.421715;stroke-linecap:round;stroke-linejoin:round;stroke-miterlimit:1.5;stroke-dasharray:none;stroke-dashoffset:0;stroke-opacity:1;color-rendering:auto;image-rendering:auto;shape-rendering:auto;text-rendering:auto;enable-background:accumulate;stop-color:#000000" />
        <path
           d="m 42.453411,348.99534 c 0.0174,0.0175 0.03581,0.0334 0.05261,0.0518 0.734492,0.80243 0.59289,2.09091 -0.268664,2.8713 a 0.2615408,0.26022139 0 0 1 -0.0036,0.004 c -0.0021,0.002 -0.01171,0.008 -0.01378,0.01 a 0.2615408,0.26022139 0 0 1 -0.02094,0.0152 c -0.225156,0.20064 -0.711499,0.583 -1.382145,1.07788 -0.689075,0.50849 -1.540253,1.11196 -2.389895,1.67449 -0.849643,0.56255 -1.695498,1.08303 -2.382235,1.42549 -0.25449,0.12691 -0.485831,0.22913 -0.694647,0.30085 -0.0055,0.036 -0.01313,0.0722 -0.0143,0.10824 -0.004,0.12073 0.02332,0.25954 0.121563,0.36693 0.09828,0.10737 0.236371,0.14814 0.357539,0.1555 0.121169,0.007 0.240203,-0.0131 0.370309,-0.0462 0.260214,-0.0663 0.562227,-0.19365 0.905596,-0.36488 0.686737,-0.34246 1.532593,-0.86294 2.382234,-1.42548 0.849643,-0.56254 1.70082,-1.16602 2.389895,-1.6745 0.670646,-0.49489 1.15699,-0.87724 1.382146,-1.07788 a 0.2615408,0.26022139 0 0 0 0.02094,-0.0153 c 0.0021,-0.002 0.01179,-0.008 0.01378,-0.01 a 0.2615408,0.26022139 0 0 0 0.0036,-0.004 c 0.861553,-0.78038 1.003156,-2.06886 0.268664,-2.87129 -0.295826,-0.32336 -0.684478,-0.51164 -1.098667,-0.57223 z"
           style="color:#000000;font-style:normal;font-variant:normal;font-weight:normal;font-stretch:normal;font-size:medium;line-height:normal;font-family:sans-serif;font-variant-ligatures:normal;font-variant-position:normal;font-variant-caps:normal;font-variant-numeric:normal;font-variant-alternates:normal;font-variant-east-asian:normal;font-feature-settings:normal;font-variation-settings:normal;text-indent:0;text-align:start;text-decoration:none;text-decoration-line:none;text-decoration-style:solid;text-decoration-color:#000000;letter-spacing:normal;word-spacing:normal;text-transform:none;writing-mode:lr-tb;direction:ltr;text-orientation:mixed;dominant-baseline:auto;baseline-shift:baseline;text-anchor:start;white-space:normal;shape-padding:0;shape-margin:0;inline-size:0;clip-rule:evenodd;display:inline;overflow:visible;visibility:visible;isolation:auto;mix-blend-mode:normal;color-interpolation:sRGB;color-interpolation-filters:linearRGB;solid-color:#000000;solid-opacity:1;vector-effect:none;fill:#f76336;fill-opacity:1;fill-rule:evenodd;stroke:none;stroke-width:0.421715;stroke-linecap:round;stroke-linejoin:round;stroke-miterlimit:1.5;stroke-dasharray:none;stroke-dashoffset:0;stroke-opacity:1;color-rendering:auto;image-rendering:auto;shape-rendering:auto;text-rendering:auto;enable-background:accumulate;stop-color:#000000"
           id="path2372" />
      </g>
      <path
         id="path1142"
         style="color:#000000;font-style:normal;font-variant:normal;font-weight:normal;font-stretch:normal;font-size:medium;line-height:normal;font-family:sans-serif;font-variant-ligatures:normal;font-variant-position:normal;font-variant-caps:normal;font-variant-numeric:normal;font-variant-alternates:normal;font-variant-east-asian:normal;font-feature-settings:normal;font-variation-settings:normal;text-indent:0;text-align:start;text-decoration:none;text-decoration-line:none;text-decoration-style:solid;text-decoration-color:#000000;letter-spacing:normal;word-spacing:normal;text-transform:none;writing-mode:lr-tb;direction:ltr;text-orientation:mixed;dominant-baseline:auto;baseline-shift:baseline;text-anchor:start;white-space:normal;shape-padding:0;shape-margin:0;inline-size:0;clip-rule:evenodd;display:inline;overflow:visible;visibility:visible;opacity:1;isolation:auto;mix-blend-mode:normal;color-interpolation:sRGB;color-interpolation-filters:linearRGB;solid-color:#000000;solid-opacity:1;vector-effect:none;fill:#000000;fill-opacity:1;fill-rule:evenodd;stroke:none;stroke-width:1.59388;stroke-linecap:round;stroke-linejoin:round;stroke-miterlimit:1.5;stroke-dasharray:none;stroke-dashoffset:0;stroke-opacity:1;color-rendering:auto;image-rendering:auto;shape-rendering:auto;text-rendering:auto;enable-background:accumulate;stop-color:#000000;stop-opacity:1"
         d="m 153.61133,234.15625 c -0.40986,-0.01 -0.82314,0.0594 -1.21875,0.1875 -0.79122,0.25625 -1.55385,0.7357 -2.30469,1.36719 -0.79163,0.6658 -1.5672,1.52232 -2.30078,2.51562 -0.31816,-0.43408 -0.66906,-0.81469 -1.05664,-1.1289 -0.76856,-0.6231 -1.73364,-0.99354 -2.72461,-0.8125 -1.38833,0.25436 -2.30309,1.44967 -2.76172,2.84375 -0.45863,1.39407 -0.54225,3.1042 -0.21289,4.90039 0.11119,0.60351 0.31103,1.16772 0.56055,1.68359 0.24037,0.49754 0.83856,0.7056 1.33593,0.46484 0.49754,-0.24037 0.7056,-0.83859 0.46485,-1.33593 -0.18134,-0.37493 -0.31551,-0.76628 -0.39063,-1.17383 -0.27613,-1.50588 -0.17671,-2.92376 0.14844,-3.91211 0.32515,-0.98835 0.79734,-1.43042 1.20899,-1.50586 0.29374,-0.0537 0.64947,0.0343 1.10742,0.40625 0.37384,0.30299 0.77106,0.79435 1.12109,1.41797 -0.21749,0.3738 -0.43851,0.74324 -0.64062,1.14258 -0.99303,1.96281 -1.27863,4.01642 -1.29493,5.79297 -0.62374,0.0594 -1.23996,0.20084 -1.83398,0.42968 -1.70855,0.65802 -3.22723,1.98684 -4.14258,3.79493 -0.36748,0.72589 -1.04077,2.34712 -1.82422,4.32617 -0.98134,-2.55012 -1.86255,-4.71894 -2.28711,-5.55274 -0.75223,-1.47476 -1.96983,-2.56971 -3.35351,-3.16406 0.61292,-0.76377 1.15722,-1.68843 1.36133,-2.82227 0.27794,-1.54295 0.20281,-3.01151 -0.19922,-4.2207 -0.40205,-1.20915 -1.20903,-2.27846 -2.45899,-2.5039 -0.89294,-0.16101 -1.75734,0.18183 -2.42968,0.73046 -0.28646,0.23375 -0.54368,0.51476 -0.78516,0.82032 -0.59502,-0.77886 -1.22316,-1.44943 -1.86328,-1.98438 -0.64762,-0.54123 -1.30535,-0.95053 -2.00196,-1.17383 v -0.002 c -0.6966,-0.22337 -1.47866,-0.25277 -2.1621,0.0957 -2e-5,0.003 -2e-5,0.004 0,0.008 -0.6834,0.34885 -1.12911,0.99631 -1.35743,1.6914 -0.22832,0.69509 -0.28056,1.46847 -0.22265,2.31055 0.1158,1.68416 0.70122,3.65041 1.71289,5.63281 0.31899,0.62597 0.69475,1.19382 1.10742,1.70508 0.34567,0.4337 0.97852,0.50258 1.41016,0.1543 0.43139,-0.34772 0.49646,-0.98047 0.14648,-1.41016 -0.33449,-0.41439 -0.63513,-0.86752 -0.88477,-1.35742 -0.90668,-1.77668 -1.4074,-3.54697 -1.49804,-4.86524 -0.0453,-0.65915 0.0181,-1.20151 0.13281,-1.55078 0.11471,-0.34923 0.24326,-0.471 0.36133,-0.53125 0.11807,-0.0601 0.29258,-0.0892 0.64258,0.0234 0.34998,0.11225 0.82117,0.381 1.32812,0.80469 1.01392,0.84733 2.15573,2.28912 3.0625,4.0664 0.6645,1.30298 0.88514,2.74884 0.9082,4.03907 -0.3964,0.0984 -0.78693,0.24028 -1.16601,0.43359 -0.83275,0.42472 -1.50129,1.03823 -2.00586,1.76367 -0.99807,0.18012 -2.18354,0.20669 -3.13086,-0.25 -1.14609,-0.5526 -2.05294,-1.31186 -2.54687,-2 -0.55486,-0.65922 -0.63081,-1.23639 -0.23633,-1.63086 0.42222,-0.35678 0.47419,-0.98828 0.11718,-1.41015 -0.21327,-0.25588 -0.53988,-0.38983 -0.87109,-0.35547 -0.19582,0.0227 -0.38049,0.10152 -0.53125,0.22851 -0.27893,0.23396 -0.52005,0.52894 -0.68555,0.8711 -0.55187,1.14436 -0.16097,2.42775 0.58204,3.46289 0.74299,1.03517 1.88906,1.95407 3.30078,2.63476 1.03874,0.50075 2.10436,0.60483 3.08203,0.5586 -0.33252,1.47137 -0.15947,3.1035 0.59375,4.58007 0.7103,1.39359 3.36429,5.62016 6.40625,9.97266 0.31521,0.45577 0.94222,0.56737 1.39648,0.25 0.45327,-0.31748 0.563,-0.9422 0.24414,-1.39453 -0.64976,-0.92969 -1.27673,-1.85724 -1.88281,-2.76367 l 2.83398,-1.44336 c 0.49344,-0.24869 0.69223,-0.85045 0.44336,-1.34375 -0.17797,-0.35036 -0.54479,-0.5649 -0.9375,-0.54688 -0.14419,0.008 -0.28588,0.0452 -0.41406,0.11133 l -3.03125,1.54492 c -1.65174,-2.53247 -2.95,-4.64887 -3.2793,-5.29492 -1.14985,-2.25415 -0.4213,-4.80566 1.46094,-5.76562 1.88238,-0.96012 4.37166,-0.055 5.52149,2.19922 0.099,0.19443 0.38649,0.89999 0.58398,1.35546 l -2.95312,1.50196 c -0.49067,0.25134 -0.6855,0.85241 -0.43555,1.34375 0.25134,0.49496 0.85844,0.69051 1.35156,0.43554 l 2.81641,-1.43554 c 0.49026,1.21497 1.05026,2.65294 1.63086,4.21875 -0.93818,2.48352 -1.94693,5.26959 -2.875,8.09765 -1.09441,3.33491 -2.05055,6.61477 -2.5625,9.21289 -0.25599,1.29907 -0.40115,2.42327 -0.38282,3.35938 0.009,0.46806 0.0505,0.88882 0.19141,1.29883 0.1409,0.41 0.4148,0.85764 0.89258,1.09961 0.47786,0.24189 0.9963,0.19566 1.41015,0.0664 0.41386,-0.12926 0.78339,-0.34338 1.16602,-0.61328 0.76525,-0.53949 1.58521,-1.31942 2.48047,-2.29492 1.79052,-1.95095 3.86689,-4.66683 5.90625,-7.52344 2.03936,-2.85664 4.03544,-5.84872 5.625,-8.33398 1.58956,-2.48527 2.7455,-4.41836 3.20312,-5.32227 0.9034,-1.7845 1.08095,-3.7557 0.62305,-5.5039 1.19286,0.0806 2.52339,-0.0437 3.79102,-0.66016 1.64256,-0.79809 2.96453,-1.87534 3.8164,-3.07031 0.85187,-1.19501 1.28153,-2.63495 0.66407,-3.9043 -0.44381,-0.91612 -1.3277,-1.47303 -2.29493,-1.7207 -0.47392,-0.12143 -0.97838,-0.18055 -1.50586,-0.18164 0.36588,-1.1774 0.5964,-2.30948 0.66407,-3.33985 0.0643,-0.97897 -0.004,-1.87474 -0.26563,-2.66406 -0.26199,-0.78935 -0.76385,-1.50715 -1.52148,-1.89062 -0.37883,-0.19174 -0.7835,-0.28103 -1.19336,-0.29102 z m -0.0606,1.99609 c 0.14563,0.002 0.25786,0.0339 0.35352,0.082 0.19135,0.0968 0.37805,0.28652 0.52539,0.73046 0.14732,0.4438 0.21438,1.10829 0.16211,1.9043 -0.10454,1.59201 -0.69658,3.70126 -1.77149,5.82422 -0.83612,1.65269 -2.209,2.811 -3.5,3.75 -0.10884,-0.0911 -0.22593,-0.17363 -0.34179,-0.25781 l 1.32421,-2.6211 c 0.24889,-0.4933 0.0501,-1.09517 -0.44335,-1.34375 -0.14669,-0.0726 -0.30912,-0.10647 -0.47266,-0.10156 v -0.002 c -0.36888,0.008 -0.70375,0.21794 -0.8711,0.54687 l -1.32421,2.61719 c -0.13833,-0.0442 -0.27628,-0.0908 -0.41602,-0.125 -0.008,-1.59611 0.1148,-3.3859 0.95117,-5.03906 1.07446,-2.12296 2.42542,-3.85194 3.64649,-4.87891 0.61053,-0.51349 1.18599,-0.84417 1.63086,-0.98828 0.22243,-0.072 0.40125,-0.0998 0.54687,-0.0977 z m -24.1582,3.18164 c 0.54365,0.001 0.81219,0.64862 1.07422,1.10157 0.26725,0.80375 0.35845,1.97985 0.13281,3.23242 -0.13986,0.77694 -0.58825,1.50041 -1.10938,2.11523 -0.0872,-1.33707 -0.37466,-2.80889 -1.09765,-4.22656 -0.16095,-0.31546 -0.33747,-0.60554 -0.50977,-0.90234 0.27643,-0.47544 0.58532,-0.84775 0.86524,-1.07618 0.25207,-0.17416 0.46331,-0.24459 0.64453,-0.24414 z m 26.52734,5.00977 c 0.38446,-1.9e-4 0.7267,0.0403 1.01172,0.11328 0.57949,0.14854 0.86547,0.38857 0.99609,0.6582 0.18305,0.37645 0.11755,1.0279 -0.48632,1.875 -0.60387,0.84707 -1.69515,1.75869 -3.07227,2.42774 -1e-5,0.003 -1e-5,0.004 0,0.008 -1.01367,0.493 -2.23549,0.5358 -3.32812,0.39844 1.31554,-1.0384 2.65008,-2.41785 3.56445,-4.22266 v -0.008 c 0.20226,-0.39983 0.37032,-0.79624 0.54297,-1.19336 0.26883,-0.0332 0.53101,-0.0565 0.77148,-0.0566 z m 8.60156,4.48437 c -1.16508,0.042 -2.36482,0.63159 -3.16015,1.78516 -1.01346,1.24929 -1.77522,2.97952 -2.14063,4.96094 -0.11493,0.62574 -0.13425,1.2425 -0.0898,1.83789 0.0412,0.55019 0.52007,0.96419 1.07031,0.92383 0.55019,-0.0412 0.96419,-0.52005 0.92383,-1.07032 -0.0333,-0.44485 -0.0144,-0.88841 0.0664,-1.32812 0.31188,-1.69123 0.97444,-3.14307 1.71875,-4.06055 0.74429,-0.91748 1.45932,-1.2178 1.97265,-1.12304 0.32107,0.059 0.6264,0.25619 0.9375,0.70898 0.33787,0.49122 0.61621,1.27719 0.75196,2.2168 -0.3903,0.31346 -0.78229,0.62321 -1.16602,0.97265 -1.86059,1.69493 -2.97519,3.79876 -3.68555,5.6836 -0.66959,-0.2635 -1.372,-0.42305 -2.10937,-0.41992 -2.00794,0.008 -4.07359,0.78176 -5.72071,2.28125 -0.82367,0.74985 -2.55414,2.57093 -4.74609,5.01171 -2.19195,2.44082 -4.80757,5.46344 -7.26367,8.4961 -2.4561,3.03265 -4.74894,6.0651 -6.30469,8.55664 -0.77787,1.24581 -1.37432,2.3475 -1.7207,3.31445 -0.17322,0.48348 -0.28766,0.93837 -0.30274,1.40235 -0.0151,0.46397 0.0891,0.99743 0.46485,1.41015 0.3758,0.41265 0.90385,0.56935 1.36719,0.59766 0.46333,0.0265 0.9185,-0.0504 1.41601,-0.17774 0.99503,-0.25474 2.14989,-0.74425 3.46289,-1.40234 2.626,-1.31618 5.86045,-3.31651 9.10938,-5.47852 3.24893,-2.16196 6.50373,-4.4813 9.13867,-6.43554 2.63494,-1.95425 4.61015,-3.50206 5.43359,-4.25196 1.70723,-1.55423 2.57927,-3.60191 2.64258,-5.64453 1.25498,0.62135 2.77836,1.09756 4.44336,0.94922 2.0071,-0.17839 3.79801,-0.76995 5.13672,-1.66211 1.33871,-0.89215 2.31979,-2.1887 2.18555,-3.69726 -0.096,-1.07698 -0.76071,-1.97151 -1.63868,-2.59766 -0.47964,-0.34208 -1.03578,-0.61691 -1.64257,-0.83594 0.88642,-1.11572 1.60728,-2.23671 2.09961,-3.3125 0.44992,-0.98317 0.73046,-1.93202 0.76953,-2.83593 0.039,-0.90395 -0.18679,-1.80844 -0.79883,-2.48047 -0.61197,-0.67238 -1.49468,-0.98755 -2.39844,-1.03321 -0.90376,-0.0457 -1.86572,0.14589 -2.88672,0.50196 -1.11905,0.3903 -2.30663,1.00658 -3.5039,1.78711 -0.19587,-0.76273 -0.47817,-1.45948 -0.88086,-2.04493 -0.65652,-1.04099 -1.78609,-1.54782 -2.95118,-1.50586 z m -19.14062,0.14649 c 0.63524,0.0157 1.26233,0.16462 1.84375,0.45898 2.32662,1.1771 3.22084,4.30164 1.83008,7.04883 -0.15184,0.29992 -0.52334,0.93681 -0.95899,1.66602 l -3.66211,-1.85742 c -0.14668,-0.0726 -0.30911,-0.10843 -0.47265,-0.10352 -0.36888,0.008 -0.70375,0.21794 -0.8711,0.54688 -0.24994,0.49133 -0.0551,1.09248 0.43555,1.34374 l 3.51758,1.7793 c -0.36392,0.58618 -0.67338,1.09702 -1.10352,1.76953 -1.15349,1.80349 -2.54866,3.88387 -3.99218,5.97461 l -2.7461,-1.38867 c -0.146,-0.0752 -0.30847,-0.1136 -0.47265,-0.11133 -0.36889,0.008 -0.70376,0.21795 -0.8711,0.54688 -0.24994,0.49134 -0.0551,1.09057 0.43555,1.34179 l 2.50586,1.26758 c -0.14494,0.20499 -0.28035,0.41152 -0.42578,0.61524 -2.01361,2.82054 -4.06458,5.50145 -5.75,7.33789 -0.84271,0.9182 -1.60093,1.6255 -2.1543,2.01562 -0.2036,0.14362 -0.32992,0.1952 -0.45117,0.25 -0.028,-0.13001 -0.0615,-0.25658 -0.0664,-0.50781 -0.0132,-0.67695 0.11257,-1.70881 0.35352,-2.93164 0.48191,-2.44562 1.42331,-5.68373 2.5039,-8.97656 0.67877,-2.06835 1.40099,-4.10032 2.11329,-6.04688 l 3.5332,1.78711 c 0.49133,0.24983 1.0925,0.0552 1.34375,-0.43555 0.24888,-0.4933 0.0501,-1.09321 -0.44336,-1.34179 l -3.73242,-1.89453 c 0.17696,-0.46938 0.36767,-1.00402 0.53711,-1.44336 1.05062,-2.72421 1.95509,-4.86408 2.30273,-5.55078 0.69541,-1.37364 1.79965,-2.34187 3.02539,-2.82032 0.61287,-0.23922 1.25734,-0.35554 1.89258,-0.33984 z m 29.26758,3.11523 c 0.5401,0.0265 0.8329,0.174 1.01758,0.37696 0.18459,0.20258 0.3046,0.50862 0.28125,1.04882 -0.0234,0.54021 -0.2162,1.27144 -0.58985,2.0879 -0.74728,1.6329 -2.21272,3.59747 -4.17969,5.38867 -1.60048,1.45727 -3.5889,2.14636 -5.36523,2.61328 -0.0996,-0.18338 -0.19325,-0.36972 -0.28906,-0.55469 l 2.54101,-2.30859 c 0.41153,-0.37229 0.44131,-1.00891 0.0664,-1.41797 -0.1861,-0.20334 -0.44903,-0.32044 -0.72461,-0.32422 -0.25334,-0.004 -0.49772,0.0877 -0.68555,0.25781 l -2.54297,2.31641 c -0.17601,-0.11239 -0.35532,-0.22126 -0.52929,-0.33789 0.6305,-1.72623 1.50766,-3.64052 3.10937,-5.09961 1.96693,-1.79116 4.06208,-3.06288 5.75781,-3.6543 0.84787,-0.29556 1.59272,-0.41986 2.13282,-0.39258 z m -1.03906,9.31446 c 0.80696,0.19202 1.48666,0.47814 1.94726,0.80664 0.5523,0.3939 0.77164,0.78161 0.80469,1.15234 0.0462,0.51946 -0.3175,1.19627 -1.30078,1.85156 -0.98329,0.6553 -2.49387,1.18355 -4.20703,1.33594 -1.37693,0.12267 -2.77176,-0.40517 -3.91211,-1.05078 1.83724,-0.54701 3.85748,-1.44786 5.58789,-3.02344 0.38489,-0.3505 0.73068,-0.71213 1.08008,-1.07226 z m -14.02735,0.5039 c 1.49279,-0.0113 2.91281,0.54084 3.91211,1.63868 1.99846,2.19446 1.67371,5.87337 -0.90039,8.21679 -0.29413,0.26787 -0.94231,0.79339 -1.73633,1.41992 l -3.15039,-3.45703 c -0.1861,-0.20334 -0.44903,-0.32239 -0.72461,-0.32617 -0.25334,-0.004 -0.49772,0.0897 -0.68554,0.25977 -0.41153,0.37228 -0.44131,1.00695 -0.0664,1.41601 l 3.0293,3.33203 c -0.6334,0.48427 -1.18766,0.91847 -1.9375,1.47461 -1.93587,1.43575 -4.24475,3.07072 -6.60547,4.69531 l -2.3711,-2.60742 c -0.18652,-0.20787 -0.45115,-0.32825 -0.73047,-0.33203 -0.25428,-0.002 -0.49881,0.0929 -0.68554,0.26563 -0.40667,0.37152 -0.43634,1.00208 -0.0664,1.41015 l 2.19141,2.40625 c -0.26896,0.18108 -0.52795,0.36792 -0.79688,0.54688 -3.21203,2.13743 -6.40748,4.105 -8.89453,5.35156 -1.24352,0.62324 -2.31275,1.06552 -3.05664,1.25586 -0.34133,0.0873 -0.58653,0.10616 -0.73828,0.10352 0.0113,-0.15081 0.0503,-0.39054 0.16992,-0.72461 0.25894,-0.72284 0.79845,-1.74984 1.53516,-2.92969 1.47342,-2.35967 3.73586,-5.35924 6.16406,-8.35742 1.55354,-1.91824 3.13755,-3.7762 4.67383,-5.54492 l 3.05469,3.35351 c 0.37145,0.40668 1.00205,0.43631 1.41015,0.0664 0.40667,-0.37153 0.43634,-1.00208 0.0664,-1.41016 l -3.20313,-3.52344 c 0.39247,-0.44399 0.82469,-0.95058 1.19532,-1.36328 2.17166,-2.41822 3.95614,-4.28726 4.59961,-4.87304 1.28717,-1.17185 2.85486,-1.75132 4.34765,-1.76368 z"
         transform="matrix(0.26458334,0,0,0.26458334,0,280.06666)" />
    </g>
  </g>
</svg>
