<?xml version="1.0" ?><svg style="enable-background:new 0 0 512 512;" version="1.1" viewBox="0 0 512 512" xml:space="preserve" xmlns="http://www.w3.org/2000/svg" xmlns:xlink="http://www.w3.org/1999/xlink"><g id="_x31_8_x2C__direction_x2C__street_x2C__road._sign._navigate"><g><polygon points="206.99,271.94 206.99,335.69 124.16,335.69 90.28,303.77 124.16,271.94   " style="fill:#2ECC71;"/><polygon points="206.99,140.33 206.99,204.08 73.22,204.08 39.33,172.16 73.22,140.33   " style="fill:#F1C40F;"/><polygon points="472.67,204.73 438.78,236.65 279.05,236.65 279.05,172.91 438.78,172.91   " style="fill:#E74C3C;"/><path d="M279.05,236.65V454.2h-72.06V335.69v-63.75v-67.86v-63.75V93.84c0-19.8,16.21-36.04,36.01-36.04    c19.84,0,36.05,16.24,36.05,36.04v79.07V236.65z" style="fill:#7F8C8D;"/><path d="M374.12,464.2h-95.07c-5.523,0-10-4.478-10-10s4.477-10,10-10h95.07c5.523,0,10,4.478,10,10S379.643,464.2,374.12,464.2z"/><path d="M206.99,464.2h-95.07c-5.523,0-10-4.478-10-10s4.477-10,10-10h95.07c5.523,0,10,4.478,10,10S212.513,464.2,206.99,464.2z"/><path d="M438.78,246.65H279.05c-5.523,0-10-4.477-10-10s4.477-10,10-10h155.762l23.261-21.909l-23.252-21.831H279.05    c-5.523,0-10-4.477-10-10s4.477-10,10-10h159.73c2.543,0,4.991,0.969,6.845,2.71l33.89,31.82c2.011,1.888,3.153,4.523,3.155,7.282    s-1.135,5.396-3.144,7.287l-33.89,31.92C443.781,245.677,441.329,246.65,438.78,246.65z"/><path d="M206.99,214.08H73.22c-2.549,0-5.001-0.973-6.856-2.721l-33.89-31.92c-2.008-1.891-3.146-4.528-3.144-7.286    c0.002-2.759,1.143-5.394,3.154-7.282l33.89-31.83c1.854-1.742,4.302-2.711,6.846-2.711h133.77c5.523,0,10,4.477,10,10    s-4.477,10-10,10H77.18l-23.254,21.84l23.262,21.91H206.99c5.523,0,10,4.477,10,10S212.513,214.08,206.99,214.08z"/><path d="M289.05,464.2h-92.06V93.84c0-25.387,20.64-46.04,46.01-46.04c25.392,0,46.05,20.653,46.05,46.04V464.2z M216.99,444.2    h52.06V93.84c0-14.358-11.686-26.04-26.05-26.04c-14.342,0-26.01,11.682-26.01,26.04V444.2z"/><path d="M206.99,345.69h-82.83c-2.549,0-5.002-0.974-6.857-2.722l-33.88-31.921c-2.007-1.892-3.145-4.527-3.143-7.285    c0.002-2.759,1.143-5.393,3.153-7.281l33.88-31.829c1.854-1.742,4.303-2.712,6.847-2.712h82.83c5.523,0,10,4.478,10,10    s-4.477,10-10,10h-78.87l-23.247,21.84l23.255,21.91h78.861c5.523,0,10,4.478,10,10S212.513,345.69,206.99,345.69z"/></g></g><g id="Layer_1"/></svg>