<?xml version="1.0" ?><svg style="enable-background:new 0 0 512 512;" version="1.1" viewBox="0 0 512 512" xml:space="preserve" xmlns="http://www.w3.org/2000/svg" xmlns:xlink="http://www.w3.org/1999/xlink"><g id="_x33__x2C__road_x2C__map_x2C__flag_x2C__sign_x2C__direction"><g><g><polygon points="88.87,318.238 176.22,180.598 216.5,180.598 135.94,401.028 36.33,401.028    " style="fill:#888C8E;"/><polygon points="397.46,278.868 474.97,401.028 375.39,401.028 375.39,401.008 294.82,180.598      335.11,180.598    " style="fill:#888C8E;"/><polygon points="294.82,180.598 252.33,180.598 216.5,180.598 135.94,401.028 252.33,401.028      375.39,401.028 375.39,401.008    " style="fill:#5F696A;"/><path d="M88.87,110.968c19.83,0,36,16.16,36,35.99c0,19.85-16.17,36.02-36,36.02     c-19.85,0-36.01-16.17-36.01-36.02C52.86,127.128,69.02,110.968,88.87,110.968z" style="fill:#95A5A6;"/><polygon points="475.67,144.988 451.02,173.498 475.67,201.998 397.46,201.998 397.46,144.988    " style="fill:#D35400;"/><path d="M335.11,190.598H176.22c-5.523,0-10-4.477-10-10s4.477-10,10-10h158.89c5.523,0,10,4.477,10,10     S340.633,190.598,335.11,190.598z"/><path d="M474.97,411.029H36.33c-3.647,0-7.006-1.986-8.763-5.183s-1.635-7.096,0.32-10.176l139.89-220.43     c2.96-4.663,9.138-6.044,13.802-3.085c4.663,2.959,6.044,9.139,3.085,13.802L54.52,391.029h402.262L326.666,185.956     c-2.959-4.664-1.577-10.842,3.086-13.801c4.664-2.958,10.842-1.577,13.801,3.086l139.86,220.43     c1.954,3.08,2.076,6.979,0.319,10.176C481.976,409.042,478.618,411.029,474.97,411.029z"/><path d="M135.939,411.031c-1.14,0-2.299-0.196-3.432-0.61c-5.188-1.896-7.855-7.638-5.96-12.825l80.56-220.43     c1.896-5.188,7.637-7.857,12.825-5.96c5.188,1.896,7.855,7.638,5.96,12.825l-80.56,220.43     C143.851,408.516,140.019,411.031,135.939,411.031z"/><path d="M375.391,411.011c-4.08,0-7.911-2.516-9.393-6.569l-80.57-220.41c-1.896-5.187,0.771-10.929,5.959-12.825     c5.188-1.896,10.929,0.772,12.825,5.959l80.57,220.409c1.896,5.188-0.771,10.93-5.959,12.826     C377.69,410.815,376.531,411.011,375.391,411.011z"/><path d="M88.87,192.978c-25.37,0-46.01-20.645-46.01-46.02c0-25.359,20.64-45.99,46.01-45.99c25.364,0,46,20.631,46,45.99     C134.87,172.334,114.234,192.978,88.87,192.978z M88.87,120.969c-14.342,0-26.01,11.659-26.01,25.99     c0,14.348,11.668,26.02,26.01,26.02c14.336,0,26-11.672,26-26.02C114.87,132.628,103.206,120.969,88.87,120.969z"/><path d="M88.87,328.253c-5.523,0-10-4.463-10-9.985v-135.29c0-5.523,4.477-10,10-10s10,4.477,10,10v135.26     C98.87,323.761,94.393,328.253,88.87,328.253z"/><path d="M397.46,289.038c-5.523,0-10-4.478-10-10v-77.04c0-5.523,4.477-10,10-10s10,4.477,10,10v77.04     C407.46,284.561,402.983,289.038,397.46,289.038z"/><path d="M475.67,211.998h-78.21c-5.523,0-10-4.477-10-10v-57.01c0-5.523,4.477-10,10-10h78.21c3.913,0,7.467,2.282,9.094,5.841     s1.03,7.74-1.53,10.7l-18.994,21.968l18.993,21.959c2.56,2.959,3.158,7.141,1.531,10.7     C483.137,209.716,479.583,211.998,475.67,211.998z M407.46,191.998h46.339l-10.343-11.958c-3.248-3.755-3.249-9.326-0.001-13.082     l10.349-11.969H407.46V191.998z"/><path d="M252.33,400.599c-5.523,0-10-4.478-10-10v-30c0-5.522,4.477-10,10-10c5.523,0,10,4.478,10,10v30     C262.33,396.121,257.853,400.599,252.33,400.599z M252.33,340.599c-5.523,0-10-4.478-10-10v-30.001c0-5.522,4.477-10,10-10     c5.523,0,10,4.478,10,10v30.001C262.33,336.121,257.853,340.599,252.33,340.599z M252.33,280.598c-5.523,0-10-4.478-10-10v-30     c0-5.523,4.477-10,10-10c5.523,0,10,4.477,10,10v30C262.33,276.12,257.853,280.598,252.33,280.598z M252.33,220.598     c-5.523,0-10-4.477-10-10v-30c0-5.523,4.477-10,10-10c5.523,0,10,4.477,10,10v30C262.33,216.121,257.853,220.598,252.33,220.598z     "/></g></g></g><g id="Layer_1"/></svg>