<?xml version="1.0" ?><!DOCTYPE svg  PUBLIC '-//W3C//DTD SVG 1.1//EN'  'http://www.w3.org/Graphics/SVG/1.1/DTD/svg11.dtd'><svg height="32px" style="fill-rule:evenodd;clip-rule:evenodd;stroke-linejoin:round;stroke-miterlimit:2;" version="1.1" width="32px" xml:space="preserve" xmlns="http://www.w3.org/2000/svg" xmlns:serif="http://www.serif.com/" xmlns:xlink="http://www.w3.org/1999/xlink"><g id="Icon"><path d="M20,19l-0,0c-0,0.021 0.001,0.041 0.002,0.061c0.015,0.324 0.153,0.537 0.322,0.676c0.178,0.163 0.416,0.263 0.676,0.263c-0,0 1,-0.058 1,-1c-0,-0 -0,-0 -0,-0c-0,-1.657 -1.343,-3 -3,-3l-14,-0c-1.657,-0 -3,1.343 -3,3l-0,10c0,0.552 0.448,1 1,1l18,0c0.552,0 1,-0.448 1,-1l-0,-2c0,-0.552 -0.448,-1 -1,-1c-0.552,-0 -1,0.448 -1,1l-0,1c-0,-0 -16,-0 -16,-0c-0,0 -0,-9 -0,-9c0,-0.552 0.448,-1 1,-1l14,-0c0.552,-0 1,0.448 1,1Z"/><path d="M12.04,2.08c-3.312,-0 -6,2.688 -6,6c-0,3.311 2.688,6 6,6c3.311,-0 6,-2.689 6,-6c-0,-3.312 -2.689,-6 -6,-6Zm-0,2c2.208,-0 4,1.792 4,4c-0,2.207 -1.792,4 -4,4c-2.208,-0 -4,-1.793 -4,-4c-0,-2.208 1.792,-4 4,-4Z"/><path d="M24,22l-3,0c-0.552,-0 -1,0.448 -1,1c-0,0.552 0.448,1 1,1l3,0l0,3c0,0.552 0.448,1 1,1c0.552,-0 1,-0.448 1,-1l0,-3l3,0c0.552,-0 1,-0.448 1,-1c-0,-0.552 -0.448,-1 -1,-1l-3,0l0,-3c0,-0.552 -0.448,-1 -1,-1c-0.552,-0 -1,0.448 -1,1l0,3Z"/></g></svg>